<svg xmlns="http://www.w3.org/2000/svg" xmlns:xlink="http://www.w3.org/1999/xlink" width="1350" zoomAndPan="magnify" viewBox="0 0 1012.5 809.999993" height="1080" preserveAspectRatio="xMidYMid meet" version="1.0"><defs><clipPath id="965c826a26"><path d="M 0 0.199219 L 1012 0.199219 L 1012 809.800781 L 0 809.800781 Z M 0 0.199219 " clip-rule="nonzero"/></clipPath></defs><g clip-path="url(#965c826a26)"><path fill="#ffffff" d="M 0 0.199219 L 1012 0.199219 L 1012 809.800781 L 0 809.800781 Z M 0 0.199219 " fill-opacity="1" fill-rule="nonzero"/><path fill="#ffffff" d="M 0 0.199219 L 1012 0.199219 L 1012 809.800781 L 0 809.800781 Z M 0 0.199219 " fill-opacity="1" fill-rule="nonzero"/></g><path fill="#0b7c12" d="M 583.421875 291.925781 C 585.105469 291.921875 586.789062 291.960938 588.472656 292.03125 C 590.152344 292.105469 591.832031 292.214844 593.511719 292.359375 C 595.1875 292.503906 596.863281 292.6875 598.53125 292.90625 C 600.203125 293.125 601.867188 293.378906 603.523438 293.667969 C 605.183594 293.957031 606.832031 294.285156 608.476562 294.648438 C 610.121094 295.011719 611.757812 295.40625 613.382812 295.839844 C 615.011719 296.273438 616.628906 296.742188 618.234375 297.246094 C 619.839844 297.75 621.4375 298.289062 623.019531 298.863281 C 624.601562 299.433594 626.171875 300.042969 627.730469 300.683594 C 629.285156 301.324219 630.828125 302 632.355469 302.707031 C 633.882812 303.417969 635.394531 304.15625 636.890625 304.929688 C 638.386719 305.707031 639.863281 306.511719 641.324219 307.347656 C 642.785156 308.1875 644.226562 309.058594 645.648438 309.957031 C 647.070312 310.859375 648.472656 311.789062 649.855469 312.75 C 651.238281 313.714844 652.597656 314.703125 653.9375 315.726562 C 655.277344 316.746094 656.589844 317.796875 657.886719 318.875 C 659.179688 319.953125 660.449219 321.058594 661.691406 322.191406 C 662.9375 323.324219 664.160156 324.484375 665.351562 325.667969 C 666.546875 326.855469 667.714844 328.066406 668.859375 329.304688 C 670 330.542969 671.117188 331.804688 672.203125 333.089844 C 673.289062 334.375 674.351562 335.683594 675.378906 337.015625 C 676.410156 338.34375 677.410156 339.699219 678.382812 341.074219 C 679.355469 342.449219 680.296875 343.84375 681.207031 345.261719 C 682.121094 346.675781 683 348.109375 683.847656 349.566406 C 684.695312 351.019531 685.511719 352.492188 686.296875 353.980469 C 687.082031 355.46875 687.835938 356.976562 688.554688 358.5 C 689.273438 360.019531 689.960938 361.558594 690.613281 363.109375 C 691.265625 364.664062 691.882812 366.226562 692.46875 367.808594 C 693.050781 369.386719 693.601562 370.976562 694.117188 372.578125 C 694.632812 374.183594 695.113281 375.796875 695.558594 377.417969 C 696.003906 379.042969 696.414062 380.675781 696.789062 382.316406 C 697.164062 383.960938 697.5 385.609375 697.804688 387.265625 C 698.105469 388.921875 698.371094 390.582031 698.601562 392.25 C 698.832031 393.917969 699.027344 395.589844 699.1875 397.265625 C 699.34375 398.945312 699.464844 400.621094 699.550781 402.304688 C 699.632812 403.984375 699.683594 405.667969 699.695312 407.351562 C 699.707031 409.035156 699.679688 410.71875 699.621094 412.402344 C 699.558594 414.085938 699.460938 415.765625 699.324219 417.441406 C 699.191406 419.121094 699.019531 420.796875 698.8125 422.46875 C 698.605469 424.136719 698.363281 425.804688 698.082031 427.464844 C 697.804688 429.125 697.488281 430.777344 697.136719 432.425781 C 696.785156 434.070312 696.398438 435.710938 695.976562 437.339844 C 695.550781 438.96875 695.09375 440.589844 694.601562 442.199219 C 694.109375 443.808594 693.582031 445.40625 693.019531 446.992188 C 692.457031 448.582031 691.859375 450.15625 691.226562 451.714844 C 690.597656 453.277344 689.933594 454.824219 689.234375 456.355469 C 688.535156 457.886719 687.804688 459.402344 687.039062 460.90625 C 686.277344 462.40625 685.480469 463.886719 684.652344 465.355469 C 683.824219 466.820312 682.964844 468.265625 682.070312 469.695312 C 681.179688 471.125 680.257812 472.53125 679.304688 473.921875 C 678.355469 475.308594 677.371094 476.675781 676.359375 478.019531 C 675.347656 479.367188 674.304688 480.691406 673.238281 481.992188 C 672.167969 483.289062 671.070312 484.566406 669.945312 485.820312 C 668.820312 487.074219 667.667969 488.300781 666.492188 489.503906 C 665.3125 490.707031 664.109375 491.882812 662.878906 493.03125 C 661.648438 494.183594 660.394531 495.304688 659.117188 496.402344 C 657.839844 497.5 656.539062 498.566406 655.214844 499.605469 C 653.886719 500.644531 652.542969 501.65625 651.171875 502.636719 C 649.804688 503.617188 648.414062 504.566406 647.003906 505.488281 C 645.597656 506.40625 644.167969 507.296875 642.71875 508.15625 C 641.269531 509.015625 639.804688 509.839844 638.320312 510.636719 C 636.835938 511.429688 635.332031 512.191406 633.816406 512.921875 C 632.296875 513.652344 630.765625 514.347656 629.21875 515.007812 C 627.671875 515.671875 626.109375 516.300781 624.535156 516.894531 L 628.355469 535.65625 C 628.480469 536.285156 628.421875 536.894531 628.183594 537.492188 C 627.941406 538.085938 627.558594 538.566406 627.03125 538.929688 C 626.5 539.289062 625.910156 539.472656 625.265625 539.472656 C 624.621094 539.472656 624.03125 539.289062 623.5 538.929688 L 588.132812 515.375 C 587.746094 515.117188 587.429688 514.792969 587.191406 514.394531 C 586.949219 513.996094 586.804688 513.566406 586.753906 513.105469 C 585.976562 514.902344 585.132812 516.675781 584.234375 518.414062 C 583.332031 520.15625 582.371094 521.867188 581.355469 523.542969 C 580.335938 525.222656 579.261719 526.859375 578.132812 528.464844 C 577.003906 530.066406 575.820312 531.632812 574.585938 533.152344 C 573.351562 534.675781 572.0625 536.15625 570.726562 537.589844 C 569.390625 539.027344 568.007812 540.414062 566.574219 541.753906 C 565.144531 543.097656 563.667969 544.386719 562.148438 545.628906 C 560.628906 546.867188 559.070312 548.054688 557.46875 549.191406 C 555.871094 550.324219 554.234375 551.402344 552.558594 552.425781 C 550.886719 553.449219 549.179688 554.414062 547.441406 555.320312 C 545.699219 556.226562 543.933594 557.070312 542.136719 557.855469 C 540.339844 558.644531 538.515625 559.367188 536.671875 560.027344 C 534.824219 560.691406 532.957031 561.289062 531.070312 561.824219 C 529.183594 562.359375 527.28125 562.828125 525.359375 563.234375 C 523.441406 563.636719 521.511719 563.976562 519.570312 564.25 C 517.625 564.523438 515.675781 564.730469 513.722656 564.871094 C 511.765625 565.011719 509.804688 565.085938 507.84375 565.09375 C 505.882812 565.101562 503.925781 565.039062 501.96875 564.914062 C 500.007812 564.789062 498.058594 564.59375 496.113281 564.335938 C 494.171875 564.074219 492.238281 563.75 490.316406 563.359375 C 488.394531 562.96875 486.488281 562.511719 484.597656 561.992188 C 482.707031 561.472656 480.835938 560.886719 478.984375 560.238281 C 477.132812 559.589844 475.304688 558.878906 473.503906 558.105469 C 471.699219 557.332031 469.925781 556.5 468.179688 555.605469 C 466.433594 554.710938 464.71875 553.761719 463.039062 552.75 C 461.359375 551.738281 459.714844 550.671875 458.105469 549.550781 C 456.496094 548.425781 454.929688 547.25 453.402344 546.023438 C 451.871094 544.792969 450.386719 543.511719 448.945312 542.183594 C 447.507812 540.851562 446.113281 539.472656 444.765625 538.046875 C 443.417969 536.621094 442.121094 535.152344 440.875 533.640625 C 439.625 532.125 438.433594 530.570312 437.292969 528.976562 C 436.152344 527.378906 435.066406 525.746094 434.035156 524.078125 C 432.332031 524.144531 430.628906 524.171875 428.921875 524.164062 C 427.21875 524.15625 425.511719 524.109375 423.808594 524.027344 C 422.109375 523.941406 420.40625 523.820312 418.710938 523.664062 C 417.011719 523.503906 415.320312 523.308594 413.628906 523.074219 C 411.941406 522.84375 410.257812 522.574219 408.582031 522.265625 C 406.902344 521.957031 405.234375 521.613281 403.570312 521.234375 C 401.910156 520.851562 400.257812 520.4375 398.613281 519.984375 C 396.96875 519.53125 395.335938 519.039062 393.714844 518.515625 C 392.09375 517.992188 390.484375 517.429688 388.886719 516.832031 C 387.289062 516.238281 385.703125 515.605469 384.136719 514.941406 C 382.566406 514.277344 381.011719 513.574219 379.472656 512.839844 C 377.933594 512.109375 376.410156 511.339844 374.90625 510.539062 C 373.402344 509.738281 371.914062 508.90625 370.445312 508.039062 C 368.976562 507.171875 367.527344 506.273438 366.101562 505.34375 C 364.671875 504.414062 363.261719 503.453125 361.875 502.460938 C 360.488281 501.46875 359.125 500.445312 357.785156 499.394531 C 356.441406 498.339844 355.125 497.257812 353.832031 496.148438 C 352.535156 495.039062 351.269531 493.902344 350.023438 492.734375 C 348.78125 491.570312 347.5625 490.375 346.371094 489.15625 C 345.179688 487.9375 344.015625 486.691406 342.878906 485.421875 C 341.742188 484.148438 340.632812 482.855469 339.554688 481.535156 C 338.472656 480.214844 337.425781 478.871094 336.402344 477.507812 C 335.382812 476.140625 334.394531 474.753906 333.433594 473.34375 C 332.472656 471.933594 331.546875 470.503906 330.648438 469.054688 C 329.753906 467.605469 328.886719 466.136719 328.054688 464.648438 C 327.222656 463.160156 326.425781 461.652344 325.660156 460.128906 C 324.894531 458.605469 324.164062 457.066406 323.464844 455.511719 C 322.765625 453.957031 322.101562 452.386719 321.472656 450.800781 C 320.84375 449.214844 320.25 447.617188 319.695312 446.007812 C 319.136719 444.394531 318.613281 442.773438 318.125 441.140625 C 317.636719 439.503906 317.1875 437.863281 316.773438 436.207031 C 316.355469 434.554688 315.980469 432.890625 315.636719 431.222656 C 315.296875 429.550781 314.992188 427.875 314.722656 426.191406 C 314.457031 424.507812 314.226562 422.816406 314.03125 421.125 C 313.835938 419.429688 313.679688 417.730469 313.5625 416.03125 C 313.445312 414.332031 313.363281 412.628906 313.320312 410.921875 C 313.273438 409.21875 313.269531 407.515625 313.300781 405.808594 C 313.332031 404.105469 313.398438 402.402344 313.503906 400.699219 C 313.609375 399 313.753906 397.300781 313.933594 395.605469 C 314.117188 393.910156 314.335938 392.21875 314.589844 390.53125 C 314.84375 388.847656 315.136719 387.167969 315.464844 385.496094 C 315.796875 383.820312 316.160156 382.15625 316.5625 380.5 C 316.964844 378.84375 317.402344 377.195312 317.878906 375.558594 C 318.355469 373.921875 318.863281 372.292969 319.410156 370.679688 C 319.957031 369.066406 320.539062 367.460938 321.15625 365.871094 C 321.773438 364.285156 322.425781 362.707031 323.109375 361.148438 C 323.796875 359.585938 324.515625 358.042969 325.269531 356.511719 C 326.027344 354.984375 326.8125 353.472656 327.632812 351.976562 C 328.453125 350.484375 329.308594 349.007812 330.195312 347.550781 C 331.078125 346.09375 331.996094 344.65625 332.945312 343.238281 C 333.894531 341.824219 334.875 340.429688 335.882812 339.054688 C 336.894531 337.683594 337.933594 336.332031 339.003906 335.003906 C 340.074219 333.675781 341.171875 332.371094 342.300781 331.09375 C 343.425781 329.8125 344.582031 328.558594 345.765625 327.332031 C 346.945312 326.101562 348.15625 324.902344 349.390625 323.726562 C 350.625 322.550781 351.886719 321.402344 353.171875 320.28125 C 354.457031 319.164062 355.765625 318.070312 357.101562 317.007812 C 358.433594 315.949219 359.789062 314.914062 361.167969 313.914062 C 362.546875 312.910156 363.949219 311.9375 365.371094 310.996094 C 366.792969 310.054688 368.234375 309.148438 369.695312 308.269531 C 371.160156 307.390625 372.640625 306.546875 374.136719 305.734375 C 375.636719 304.921875 377.152344 304.144531 378.6875 303.398438 C 380.21875 302.652344 381.769531 301.941406 383.332031 301.265625 C 384.898438 300.585938 386.476562 299.945312 388.070312 299.335938 L 384.21875 280.546875 C 384.105469 279.921875 384.167969 279.3125 384.414062 278.722656 C 384.65625 278.132812 385.042969 277.660156 385.570312 277.300781 C 386.101562 276.945312 386.683594 276.765625 387.324219 276.765625 C 387.960938 276.765625 388.546875 276.945312 389.074219 277.300781 L 424.441406 300.714844 C 424.796875 300.9375 425.097656 301.21875 425.34375 301.5625 C 425.585938 301.90625 425.753906 302.28125 425.847656 302.691406 C 425.9375 303.105469 425.945312 303.515625 425.871094 303.929688 C 425.796875 304.34375 425.644531 304.726562 425.417969 305.082031 L 402.089844 340.476562 C 401.738281 341.011719 401.265625 341.40625 400.675781 341.65625 C 400.082031 341.90625 399.46875 341.96875 398.839844 341.847656 C 398.210938 341.722656 397.667969 341.4375 397.210938 340.980469 C 396.757812 340.527344 396.46875 339.984375 396.34375 339.355469 L 392.808594 322.117188 C 390.410156 323.144531 388.058594 324.273438 385.75 325.5 C 383.445312 326.726562 381.195312 328.046875 379 329.460938 C 376.804688 330.875 374.671875 332.378906 372.601562 333.972656 C 370.535156 335.5625 368.535156 337.242188 366.605469 339.003906 C 364.679688 340.761719 362.828125 342.601562 361.050781 344.515625 C 359.277344 346.433594 357.585938 348.421875 355.980469 350.476562 C 354.371094 352.535156 352.851562 354.65625 351.421875 356.84375 C 349.992188 359.027344 348.65625 361.269531 347.414062 363.566406 C 346.171875 365.863281 345.027344 368.207031 343.980469 370.601562 C 342.9375 372.992188 341.992188 375.425781 341.152344 377.898438 C 340.308594 380.371094 339.574219 382.871094 338.941406 385.40625 C 338.308594 387.941406 337.785156 390.496094 337.367188 393.074219 C 336.949219 395.652344 336.640625 398.242188 336.441406 400.847656 C 336.238281 403.449219 336.148438 406.058594 336.167969 408.667969 C 336.183594 411.28125 336.3125 413.886719 336.550781 416.488281 C 336.785156 419.089844 337.132812 421.675781 337.585938 424.246094 C 338.039062 426.816406 338.597656 429.367188 339.265625 431.890625 C 339.933594 434.414062 340.703125 436.90625 341.582031 439.367188 C 342.457031 441.828125 343.433594 444.246094 344.511719 446.625 C 345.589844 449.003906 346.769531 451.332031 348.042969 453.613281 C 349.316406 455.890625 350.683594 458.113281 352.144531 460.277344 C 353.605469 462.445312 355.152344 464.542969 356.789062 466.578125 C 358.425781 468.613281 360.144531 470.578125 361.945312 472.46875 C 363.746094 474.359375 365.625 476.171875 367.574219 477.90625 C 369.527344 479.636719 371.550781 481.289062 373.640625 482.851562 C 375.734375 484.414062 377.886719 485.890625 380.101562 487.273438 C 382.316406 488.65625 384.585938 489.945312 386.90625 491.140625 C 389.230469 492.332031 391.597656 493.425781 394.011719 494.421875 C 396.425781 495.417969 398.878906 496.308594 401.367188 497.097656 C 403.859375 497.886719 406.375 498.570312 408.921875 499.148438 C 411.46875 499.726562 414.035156 500.199219 416.621094 500.5625 C 419.207031 500.925781 421.804688 501.179688 424.410156 501.324219 C 423.828125 499.121094 423.332031 496.894531 422.925781 494.652344 C 422.523438 492.40625 422.207031 490.148438 421.980469 487.878906 C 421.757812 485.609375 421.621094 483.335938 421.578125 481.054688 C 421.535156 478.773438 421.582031 476.496094 421.722656 474.21875 C 421.863281 471.941406 422.089844 469.675781 422.410156 467.414062 C 422.730469 465.15625 423.140625 462.914062 423.640625 460.691406 C 424.140625 458.464844 424.730469 456.261719 425.40625 454.085938 C 426.082031 451.90625 426.84375 449.757812 427.691406 447.640625 C 428.539062 445.523438 429.46875 443.441406 430.484375 441.398438 C 431.496094 439.355469 432.589844 437.355469 433.765625 435.402344 C 434.9375 433.445312 436.191406 431.539062 437.515625 429.683594 C 438.84375 427.828125 440.242188 426.03125 441.710938 424.285156 C 443.179688 422.542969 444.71875 420.859375 446.324219 419.238281 C 447.929688 417.617188 449.59375 416.0625 451.324219 414.578125 C 453.054688 413.089844 454.839844 411.671875 456.683594 410.328125 C 458.523438 408.984375 460.417969 407.714844 462.363281 406.523438 C 460.96875 405.65625 459.597656 404.75 458.253906 403.808594 C 456.914062 402.863281 455.597656 401.882812 454.308594 400.863281 C 453.023438 399.84375 451.765625 398.789062 450.539062 397.695312 C 449.3125 396.605469 448.121094 395.480469 446.957031 394.320312 C 445.792969 393.160156 444.667969 391.96875 443.570312 390.746094 C 442.476562 389.523438 441.417969 388.269531 440.398438 386.984375 C 439.375 385.699219 438.390625 384.386719 437.441406 383.046875 C 436.496094 381.707031 435.585938 380.339844 434.714844 378.949219 C 433.847656 377.554688 433.019531 376.140625 432.230469 374.699219 C 431.441406 373.261719 430.695312 371.800781 429.988281 370.316406 C 429.285156 368.835938 428.621094 367.332031 428.003906 365.8125 C 427.382812 364.292969 426.808594 362.753906 426.277344 361.203125 C 425.746094 359.648438 425.257812 358.082031 424.816406 356.5 C 424.375 354.921875 423.976562 353.328125 423.625 351.722656 C 423.277344 350.121094 422.96875 348.507812 422.710938 346.886719 C 422.453125 345.265625 422.242188 343.640625 422.074219 342.007812 C 421.910156 340.371094 421.789062 338.734375 421.71875 337.097656 C 421.644531 335.457031 421.621094 333.816406 421.640625 332.175781 C 421.664062 330.53125 421.730469 328.894531 421.847656 327.253906 C 421.960938 325.617188 422.121094 323.984375 422.332031 322.355469 C 422.539062 320.726562 422.792969 319.109375 423.09375 317.492188 C 423.398438 315.878906 423.742188 314.277344 424.136719 312.683594 C 424.527344 311.089844 424.964844 309.507812 425.449219 307.9375 C 425.933594 306.367188 426.460938 304.816406 427.03125 303.277344 C 427.605469 301.738281 428.21875 300.214844 428.878906 298.710938 C 429.535156 297.210938 430.238281 295.726562 430.980469 294.261719 C 431.726562 292.796875 432.511719 291.359375 433.335938 289.9375 C 434.160156 288.519531 435.027344 287.125 435.933594 285.757812 C 436.839844 284.386719 437.78125 283.046875 438.765625 281.730469 C 439.746094 280.414062 440.765625 279.128906 441.820312 277.871094 C 442.878906 276.613281 443.96875 275.386719 445.09375 274.195312 C 446.21875 273 447.378906 271.835938 448.570312 270.707031 C 449.761719 269.582031 450.988281 268.488281 452.242188 267.429688 C 453.496094 266.371094 454.78125 265.347656 456.09375 264.363281 C 457.40625 263.378906 458.746094 262.429688 460.113281 261.523438 C 461.480469 260.613281 462.871094 259.742188 464.289062 258.914062 C 465.707031 258.085938 467.144531 257.296875 468.605469 256.550781 C 470.070312 255.804688 471.550781 255.097656 473.050781 254.4375 C 474.554688 253.773438 476.074219 253.15625 477.613281 252.582031 C 479.148438 252.003906 480.703125 251.472656 482.269531 250.988281 C 483.835938 250.5 485.417969 250.058594 487.011719 249.664062 C 488.605469 249.265625 490.207031 248.917969 491.820312 248.613281 C 493.433594 248.308594 495.054688 248.046875 496.679688 247.835938 C 498.308594 247.625 499.941406 247.457031 501.578125 247.339844 C 503.214844 247.222656 504.855469 247.148438 506.496094 247.125 C 508.140625 247.097656 509.78125 247.121094 511.417969 247.1875 C 513.058594 247.257812 514.695312 247.375 516.332031 247.535156 C 517.964844 247.699219 519.589844 247.90625 521.214844 248.160156 C 522.835938 248.417969 524.449219 248.71875 526.050781 249.066406 C 527.65625 249.410156 529.25 249.804688 530.832031 250.242188 C 532.414062 250.679688 533.980469 251.164062 535.535156 251.691406 C 537.089844 252.21875 538.628906 252.792969 540.148438 253.40625 C 541.671875 254.023438 543.175781 254.683594 544.660156 255.382812 C 546.144531 256.085938 547.605469 256.828125 549.046875 257.613281 C 550.488281 258.398438 551.90625 259.226562 553.300781 260.09375 C 554.695312 260.957031 556.0625 261.863281 557.40625 262.808594 C 558.75 263.753906 560.0625 264.734375 561.351562 265.753906 C 562.636719 266.773438 563.894531 267.828125 565.121094 268.921875 C 566.347656 270.011719 567.539062 271.136719 568.703125 272.296875 C 569.863281 273.457031 570.992188 274.648438 572.085938 275.875 C 573.179688 277.097656 574.238281 278.351562 575.257812 279.636719 C 576.28125 280.921875 577.265625 282.234375 578.214844 283.574219 C 579.160156 284.914062 580.070312 286.28125 580.9375 287.675781 C 581.804688 289.066406 582.636719 290.484375 583.421875 291.925781 Z M 592.042969 315.109375 C 592.496094 317.265625 592.871094 319.433594 593.160156 321.621094 C 593.449219 323.804688 593.65625 326 593.777344 328.199219 C 593.898438 330.398438 593.9375 332.601562 593.890625 334.804688 C 593.839844 337.007812 593.710938 339.207031 593.492188 341.402344 C 593.277344 343.59375 592.976562 345.777344 592.59375 347.949219 C 592.210938 350.117188 591.746094 352.269531 591.195312 354.40625 C 590.648438 356.539062 590.015625 358.652344 589.304688 360.738281 C 588.597656 362.824219 587.804688 364.878906 586.9375 366.90625 C 586.070312 368.933594 585.125 370.921875 584.101562 372.875 C 583.082031 374.828125 581.988281 376.742188 580.820312 378.609375 C 579.652344 380.480469 578.414062 382.300781 577.105469 384.074219 C 575.800781 385.851562 574.425781 387.570312 572.988281 389.242188 C 571.546875 390.910156 570.046875 392.523438 568.480469 394.074219 C 566.917969 395.628906 565.296875 397.121094 563.621094 398.550781 C 561.941406 399.980469 560.210938 401.34375 558.429688 402.640625 C 556.648438 403.9375 554.820312 405.164062 552.941406 406.320312 C 555.046875 407.609375 557.089844 408.988281 559.074219 410.453125 C 561.054688 411.917969 562.972656 413.464844 564.824219 415.097656 C 566.671875 416.730469 568.449219 418.4375 570.148438 420.222656 C 571.851562 422.007812 573.472656 423.863281 575.015625 425.789062 C 576.554688 427.714844 578.011719 429.703125 579.378906 431.757812 C 580.75 433.808594 582.027344 435.914062 583.214844 438.078125 C 584.402344 440.238281 585.492188 442.449219 586.488281 444.707031 C 587.484375 446.960938 588.378906 449.257812 589.175781 451.59375 C 589.972656 453.925781 590.667969 456.289062 591.261719 458.683594 C 591.851562 461.078125 592.339844 463.496094 592.722656 465.929688 C 593.105469 468.367188 593.382812 470.816406 593.554688 473.277344 C 593.726562 475.738281 593.792969 478.199219 593.75 480.667969 C 593.707031 483.132812 593.558594 485.59375 593.304688 488.046875 C 593.050781 490.5 592.691406 492.9375 592.222656 495.359375 C 591.757812 497.78125 591.1875 500.179688 590.515625 502.550781 C 589.84375 504.925781 589.066406 507.265625 588.191406 509.570312 L 610.65625 475.613281 C 611.007812 475.074219 611.480469 474.679688 612.074219 474.433594 C 612.664062 474.183594 613.277344 474.117188 613.90625 474.242188 C 614.539062 474.363281 615.082031 474.652344 615.535156 475.105469 C 615.988281 475.5625 616.28125 476.101562 616.402344 476.734375 L 619.9375 493.972656 C 622.296875 492.957031 624.613281 491.84375 626.882812 490.636719 C 629.152344 489.429688 631.367188 488.132812 633.527344 486.742188 C 635.691406 485.355469 637.792969 483.878906 639.832031 482.316406 C 641.871094 480.753906 643.84375 479.109375 645.75 477.382812 C 647.65625 475.65625 649.484375 473.855469 651.242188 471.980469 C 652.996094 470.105469 654.671875 468.160156 656.269531 466.144531 C 657.863281 464.128906 659.375 462.050781 660.796875 459.914062 C 662.222656 457.773438 663.554688 455.578125 664.800781 453.332031 C 666.042969 451.082031 667.191406 448.785156 668.246094 446.441406 C 669.296875 444.097656 670.253906 441.710938 671.109375 439.289062 C 671.96875 436.867188 672.722656 434.414062 673.378906 431.929688 C 674.03125 429.441406 674.585938 426.933594 675.03125 424.402344 C 675.480469 421.875 675.820312 419.328125 676.058594 416.769531 C 676.296875 414.210938 676.429688 411.644531 676.457031 409.078125 C 676.480469 406.507812 676.402344 403.941406 676.21875 401.375 C 676.03125 398.8125 675.742188 396.261719 675.34375 393.722656 C 674.949219 391.183594 674.449219 388.664062 673.84375 386.167969 C 673.242188 383.667969 672.535156 381.199219 671.726562 378.761719 C 670.921875 376.320312 670.015625 373.917969 669.007812 371.550781 C 668.003906 369.1875 666.902344 366.867188 665.703125 364.59375 C 664.507812 362.320312 663.21875 360.097656 661.835938 357.929688 C 660.457031 355.761719 658.988281 353.65625 657.4375 351.609375 C 655.882812 349.5625 654.246094 347.582031 652.527344 345.671875 C 650.8125 343.757812 649.019531 341.921875 647.148438 340.15625 C 645.28125 338.394531 643.339844 336.710938 641.332031 335.105469 C 639.324219 333.5 637.253906 331.984375 635.121094 330.550781 C 632.988281 329.117188 630.800781 327.773438 628.554688 326.519531 C 626.3125 325.269531 624.019531 324.109375 621.679688 323.046875 C 619.339844 321.984375 616.960938 321.019531 614.542969 320.152344 C 612.121094 319.285156 609.671875 318.519531 607.1875 317.851562 C 604.707031 317.1875 602.199219 316.625 599.671875 316.167969 C 597.144531 315.710938 594.601562 315.355469 592.042969 315.109375 Z M 507.582031 555.878906 C 508.84375 555.875 510.101562 555.835938 511.363281 555.769531 C 512.625 555.703125 513.882812 555.601562 515.136719 555.472656 C 516.390625 555.34375 517.644531 555.183594 518.890625 554.992188 C 520.136719 554.800781 521.378906 554.578125 522.617188 554.328125 C 523.855469 554.074219 525.082031 553.792969 526.304688 553.480469 C 527.527344 553.167969 528.742188 552.828125 529.949219 552.457031 C 531.15625 552.082031 532.351562 551.683594 533.539062 551.25 C 534.722656 550.820312 535.898438 550.363281 537.0625 549.875 C 538.226562 549.386719 539.378906 548.871094 540.515625 548.324219 C 541.65625 547.78125 542.78125 547.207031 543.890625 546.609375 C 545 546.007812 546.09375 545.382812 547.175781 544.730469 C 548.253906 544.074219 549.316406 543.394531 550.363281 542.691406 C 551.410156 541.984375 552.4375 541.253906 553.449219 540.496094 C 554.460938 539.742188 555.453125 538.960938 556.421875 538.15625 C 557.394531 537.351562 558.347656 536.523438 559.28125 535.671875 C 560.210938 534.820312 561.121094 533.949219 562.011719 533.050781 C 562.898438 532.15625 563.765625 531.238281 564.609375 530.300781 C 565.453125 529.363281 566.273438 528.402344 567.070312 527.425781 C 567.867188 526.445312 568.640625 525.449219 569.386719 524.429688 C 570.132812 523.414062 570.855469 522.378906 571.554688 521.328125 C 572.25 520.277344 572.921875 519.207031 573.566406 518.125 C 574.210938 517.039062 574.828125 515.9375 575.421875 514.824219 C 576.011719 513.707031 576.574219 512.578125 577.109375 511.4375 C 577.644531 510.292969 578.152344 509.136719 578.628906 507.96875 C 579.109375 506.800781 579.558594 505.625 579.980469 504.433594 C 580.402344 503.242188 580.792969 502.042969 581.15625 500.835938 C 581.515625 499.625 581.847656 498.410156 582.152344 497.183594 C 582.453125 495.960938 582.726562 494.726562 582.96875 493.488281 C 583.210938 492.25 583.421875 491.007812 583.601562 489.757812 C 583.785156 488.507812 583.933594 487.253906 584.054688 486 C 584.171875 484.742188 584.261719 483.484375 584.320312 482.222656 C 584.375 480.964844 584.402344 479.703125 584.398438 478.441406 C 584.394531 477.175781 584.359375 475.917969 584.292969 474.65625 C 584.230469 473.394531 584.132812 472.136719 584.003906 470.882812 C 583.875 469.625 583.71875 468.375 583.527344 467.128906 C 583.339844 465.878906 583.121094 464.636719 582.871094 463.398438 C 582.621094 462.164062 582.339844 460.933594 582.03125 459.710938 C 581.71875 458.484375 581.378906 457.269531 581.011719 456.066406 C 580.640625 454.859375 580.242188 453.660156 579.8125 452.472656 C 579.382812 451.289062 578.925781 450.113281 578.441406 448.945312 C 577.953125 447.78125 577.441406 446.628906 576.898438 445.492188 C 576.355469 444.351562 575.785156 443.226562 575.1875 442.113281 C 574.589844 441.003906 573.964844 439.90625 573.3125 438.828125 C 572.660156 437.746094 571.980469 436.683594 571.277344 435.632812 C 570.574219 434.585938 569.84375 433.558594 569.089844 432.546875 C 568.335938 431.535156 567.558594 430.542969 566.753906 429.566406 C 565.953125 428.59375 565.125 427.640625 564.273438 426.707031 C 563.425781 425.773438 562.554688 424.863281 561.660156 423.972656 C 560.765625 423.082031 559.847656 422.214844 558.910156 421.371094 C 557.972656 420.523438 557.015625 419.703125 556.039062 418.902344 C 555.0625 418.105469 554.066406 417.332031 553.050781 416.582031 C 552.035156 415.832031 551 415.109375 549.949219 414.410156 C 548.898438 413.710938 547.832031 413.039062 546.75 412.390625 C 545.664062 411.746094 544.566406 411.125 543.453125 410.535156 C 542.335938 409.941406 541.210938 409.375 540.066406 408.839844 C 538.925781 408.300781 537.769531 407.792969 536.605469 407.3125 C 535.4375 406.832031 534.257812 406.378906 533.070312 405.957031 C 531.882812 405.535156 530.683594 405.140625 529.472656 404.777344 C 528.265625 404.414062 527.046875 404.078125 525.824219 403.773438 C 524.597656 403.46875 523.367188 403.195312 522.128906 402.949219 C 520.890625 402.707031 519.648438 402.492188 518.398438 402.3125 C 517.152344 402.128906 515.898438 401.976562 514.640625 401.855469 C 513.386719 401.730469 512.128906 401.640625 510.867188 401.582031 C 509.605469 401.523438 508.34375 401.492188 507.082031 401.496094 C 505.820312 401.496094 504.558594 401.53125 503.300781 401.59375 C 502.039062 401.65625 500.78125 401.753906 499.523438 401.878906 C 498.269531 402.003906 497.015625 402.160156 495.769531 402.347656 C 494.519531 402.535156 493.277344 402.75 492.039062 403 C 490.804688 403.246094 489.574219 403.527344 488.347656 403.835938 C 487.125 404.140625 485.910156 404.480469 484.703125 404.847656 C 483.496094 405.214844 482.296875 405.613281 481.109375 406.039062 C 479.921875 406.46875 478.746094 406.921875 477.582031 407.40625 C 476.414062 407.890625 475.261719 408.402344 474.121094 408.945312 C 472.980469 409.484375 471.855469 410.054688 470.742188 410.648438 C 469.628906 411.246094 468.535156 411.871094 467.453125 412.519531 C 466.371094 413.167969 465.304688 413.84375 464.257812 414.546875 C 463.207031 415.25 462.175781 415.976562 461.164062 416.730469 C 460.152344 417.484375 459.15625 418.261719 458.183594 419.0625 C 457.207031 419.863281 456.253906 420.6875 455.316406 421.535156 C 454.382812 422.382812 453.46875 423.253906 452.578125 424.148438 C 451.6875 425.042969 450.816406 425.957031 449.972656 426.890625 C 449.125 427.828125 448.300781 428.78125 447.5 429.757812 C 446.703125 430.734375 445.925781 431.730469 445.175781 432.746094 C 444.421875 433.757812 443.699219 434.789062 442.996094 435.839844 C 442.296875 436.890625 441.621094 437.957031 440.972656 439.039062 C 440.324219 440.121094 439.703125 441.21875 439.109375 442.332031 C 438.515625 443.445312 437.949219 444.574219 437.410156 445.714844 C 436.871094 446.855469 436.359375 448.007812 435.878906 449.175781 C 435.394531 450.34375 434.941406 451.519531 434.515625 452.707031 C 434.09375 453.894531 433.695312 455.09375 433.332031 456.300781 C 432.964844 457.507812 432.628906 458.726562 432.320312 459.949219 C 432.015625 461.175781 431.738281 462.40625 431.492188 463.644531 C 431.246094 464.882812 431.03125 466.125 430.847656 467.371094 C 430.664062 468.621094 430.507812 469.871094 430.382812 471.128906 C 430.261719 472.386719 430.167969 473.644531 430.105469 474.902344 C 430.042969 476.164062 430.011719 477.425781 430.011719 478.6875 C 430.015625 479.953125 430.050781 481.21875 430.117188 482.484375 C 430.183594 483.75 430.277344 485.011719 430.40625 486.269531 C 430.53125 487.53125 430.691406 488.785156 430.878906 490.039062 C 431.070312 491.289062 431.289062 492.539062 431.539062 493.777344 C 431.789062 495.019531 432.070312 496.253906 432.378906 497.480469 C 432.691406 498.710938 433.03125 499.929688 433.402344 501.140625 C 433.773438 502.351562 434.171875 503.550781 434.601562 504.742188 C 435.03125 505.933594 435.492188 507.113281 435.980469 508.28125 C 436.464844 509.453125 436.980469 510.609375 437.527344 511.75 C 438.070312 512.894531 438.644531 514.023438 439.242188 515.140625 C 439.84375 516.253906 440.46875 517.355469 441.121094 518.4375 C 441.777344 519.523438 442.457031 520.589844 443.164062 521.640625 C 443.867188 522.695312 444.601562 523.726562 445.355469 524.742188 C 446.113281 525.757812 446.894531 526.753906 447.699219 527.730469 C 448.507812 528.707031 449.335938 529.664062 450.1875 530.601562 C 451.039062 531.535156 451.917969 532.449219 452.8125 533.34375 C 453.710938 534.238281 454.628906 535.109375 455.570312 535.957031 C 456.511719 536.804688 457.472656 537.628906 458.453125 538.429688 C 459.433594 539.230469 460.433594 540.007812 461.453125 540.757812 C 462.472656 541.511719 463.507812 542.238281 464.5625 542.9375 C 465.617188 543.640625 466.6875 544.316406 467.777344 544.964844 C 468.863281 545.613281 469.964844 546.234375 471.085938 546.828125 C 472.203125 547.421875 473.335938 547.988281 474.480469 548.527344 C 475.625 549.066406 476.785156 549.574219 477.957031 550.058594 C 479.128906 550.539062 480.308594 550.992188 481.503906 551.417969 C 482.695312 551.839844 483.898438 552.234375 485.113281 552.601562 C 486.324219 552.964844 487.546875 553.300781 488.773438 553.605469 C 490.003906 553.910156 491.238281 554.183594 492.480469 554.429688 C 493.722656 554.671875 494.972656 554.886719 496.226562 555.070312 C 497.476562 555.25 498.734375 555.402344 499.996094 555.523438 C 501.253906 555.644531 502.519531 555.738281 503.785156 555.796875 C 505.046875 555.855469 506.3125 555.882812 507.582031 555.878906 Z M 507.582031 555.878906 " fill-opacity="1" fill-rule="evenodd"/></svg>