<svg xmlns="http://www.w3.org/2000/svg" xmlns:xlink="http://www.w3.org/1999/xlink" width="1350" zoomAndPan="magnify" viewBox="0 0 1012.5 809.999993" height="1080" preserveAspectRatio="xMidYMid meet" version="1.0"><defs><clipPath id="46be811525"><path d="M 0 0.199219 L 1012 0.199219 L 1012 809.800781 L 0 809.800781 Z M 0 0.199219 " clip-rule="nonzero"/></clipPath><clipPath id="cbe4e2291e"><path d="M 303.601562 243.078125 L 708.398438 243.078125 L 708.398438 352 L 303.601562 352 Z M 303.601562 243.078125 " clip-rule="nonzero"/></clipPath><clipPath id="4769a753c7"><path d="M 303.601562 458 L 708.398438 458 L 708.398438 566.921875 L 303.601562 566.921875 Z M 303.601562 458 " clip-rule="nonzero"/></clipPath><clipPath id="36762bb463"><path d="M 303.601562 351 L 708.398438 351 L 708.398438 459 L 303.601562 459 Z M 303.601562 351 " clip-rule="nonzero"/></clipPath></defs><g clip-path="url(#46be811525)"><path fill="#ffffff" d="M 0 0.199219 L 1012 0.199219 L 1012 809.800781 L 0 809.800781 Z M 0 0.199219 " fill-opacity="1" fill-rule="nonzero"/><path fill="#ffffff" d="M 0 0.199219 L 1012 0.199219 L 1012 809.800781 L 0 809.800781 Z M 0 0.199219 " fill-opacity="1" fill-rule="nonzero"/></g><g clip-path="url(#cbe4e2291e)"><path fill="#0b7c12" d="M 694.90625 283.558594 L 450.109375 283.558594 C 449.746094 282.125 449.320312 280.710938 448.839844 279.308594 C 448.359375 277.910156 447.820312 276.535156 447.222656 275.179688 C 446.628906 273.824219 445.976562 272.496094 445.269531 271.195312 C 444.566406 269.894531 443.808594 268.625 442.996094 267.386719 C 442.1875 266.148438 441.324219 264.949219 440.417969 263.78125 C 439.507812 262.613281 438.550781 261.484375 437.546875 260.398438 C 436.542969 259.308594 435.496094 258.265625 434.40625 257.265625 C 433.320312 256.261719 432.191406 255.308594 431.019531 254.398438 C 429.851562 253.492188 428.648438 252.632812 427.410156 251.824219 C 426.171875 251.015625 424.898438 250.257812 423.597656 249.554688 C 422.296875 248.851562 420.96875 248.203125 419.613281 247.609375 C 418.257812 247.015625 416.878906 246.476562 415.480469 245.996094 C 414.082031 245.519531 412.664062 245.097656 411.226562 244.734375 C 409.792969 244.371094 408.347656 244.066406 406.886719 243.824219 C 405.425781 243.582031 403.960938 243.398438 402.484375 243.277344 C 401.011719 243.152344 399.535156 243.09375 398.054688 243.09375 C 396.574219 243.09375 395.097656 243.152344 393.621094 243.277344 C 392.148438 243.398438 390.679688 243.582031 389.21875 243.824219 C 387.761719 244.066406 386.3125 244.371094 384.878906 244.734375 C 383.445312 245.097656 382.027344 245.519531 380.625 245.996094 C 379.226562 246.476562 377.847656 247.015625 376.492188 247.609375 C 375.140625 248.203125 373.808594 248.851562 372.507812 249.554688 C 371.207031 250.257812 369.9375 251.015625 368.695312 251.824219 C 367.457031 252.632812 366.253906 253.492188 365.085938 254.398438 C 363.917969 255.308594 362.789062 256.261719 361.699219 257.265625 C 360.609375 258.265625 359.5625 259.308594 358.558594 260.398438 C 357.558594 261.484375 356.601562 262.613281 355.691406 263.78125 C 354.78125 264.949219 353.921875 266.148438 353.109375 267.386719 C 352.300781 268.625 351.542969 269.894531 350.835938 271.195312 C 350.128906 272.496094 349.480469 273.824219 348.882812 275.179688 C 348.289062 276.535156 347.75 277.910156 347.265625 279.308594 C 346.785156 280.710938 346.359375 282.125 345.996094 283.558594 L 317.09375 283.558594 C 316.207031 283.558594 315.328125 283.644531 314.460938 283.820312 C 313.59375 283.992188 312.75 284.246094 311.929688 284.585938 C 311.109375 284.925781 310.332031 285.339844 309.597656 285.835938 C 308.859375 286.328125 308.179688 286.886719 307.550781 287.511719 C 306.925781 288.136719 306.367188 288.820312 305.875 289.558594 C 305.382812 290.292969 304.964844 291.070312 304.628906 291.890625 C 304.289062 292.707031 304.03125 293.550781 303.859375 294.421875 C 303.6875 295.289062 303.601562 296.167969 303.601562 297.054688 C 303.601562 297.9375 303.6875 298.816406 303.859375 299.6875 C 304.03125 300.554688 304.289062 301.398438 304.628906 302.21875 C 304.964844 303.035156 305.382812 303.8125 305.875 304.550781 C 306.367188 305.285156 306.925781 305.96875 307.550781 306.59375 C 308.179688 307.222656 308.859375 307.78125 309.597656 308.273438 C 310.332031 308.765625 311.109375 309.179688 311.929688 309.519531 C 312.75 309.859375 313.59375 310.113281 314.460938 310.289062 C 315.328125 310.460938 316.207031 310.546875 317.09375 310.546875 L 345.996094 310.546875 C 346.359375 311.980469 346.785156 313.398438 347.265625 314.796875 C 347.75 316.195312 348.289062 317.574219 348.882812 318.925781 C 349.480469 320.28125 350.128906 321.609375 350.835938 322.910156 C 351.542969 324.210938 352.300781 325.480469 353.109375 326.71875 C 353.921875 327.957031 354.78125 329.160156 355.691406 330.324219 C 356.601562 331.492188 357.558594 332.621094 358.558594 333.707031 C 359.5625 334.796875 360.609375 335.839844 361.699219 336.84375 C 362.789062 337.84375 363.917969 338.800781 365.085938 339.707031 C 366.253906 340.617188 367.457031 341.472656 368.695312 342.28125 C 369.9375 343.089844 371.207031 343.847656 372.507812 344.550781 C 373.808594 345.253906 375.140625 345.902344 376.492188 346.496094 C 377.847656 347.089844 379.226562 347.628906 380.625 348.109375 C 382.027344 348.589844 383.445312 349.011719 384.878906 349.375 C 386.3125 349.734375 387.761719 350.039062 389.21875 350.28125 C 390.679688 350.527344 392.148438 350.707031 393.621094 350.832031 C 395.097656 350.953125 396.574219 351.015625 398.054688 351.015625 C 399.535156 351.015625 401.011719 350.953125 402.484375 350.832031 C 403.960938 350.707031 405.425781 350.527344 406.886719 350.28125 C 408.347656 350.039062 409.792969 349.734375 411.226562 349.375 C 412.664062 349.011719 414.082031 348.589844 415.480469 348.109375 C 416.878906 347.628906 418.257812 347.089844 419.613281 346.496094 C 420.96875 345.902344 422.296875 345.253906 423.597656 344.550781 C 424.898438 343.847656 426.171875 343.089844 427.410156 342.28125 C 428.648438 341.472656 429.851562 340.617188 431.019531 339.707031 C 432.191406 338.800781 433.320312 337.84375 434.40625 336.84375 C 435.496094 335.839844 436.542969 334.796875 437.546875 333.707031 C 438.550781 332.621094 439.507812 331.492188 440.417969 330.324219 C 441.324219 329.160156 442.1875 327.957031 442.996094 326.71875 C 443.808594 325.480469 444.566406 324.210938 445.269531 322.910156 C 445.976562 321.609375 446.628906 320.28125 447.222656 318.925781 C 447.820312 317.574219 448.359375 316.195312 448.839844 314.796875 C 449.320312 313.398438 449.746094 311.980469 450.109375 310.546875 L 694.90625 310.546875 C 695.792969 310.546875 696.671875 310.460938 697.539062 310.289062 C 698.40625 310.113281 699.25 309.859375 700.070312 309.519531 C 700.890625 309.179688 701.667969 308.765625 702.402344 308.273438 C 703.140625 307.78125 703.820312 307.222656 704.449219 306.59375 C 705.074219 305.96875 705.632812 305.285156 706.125 304.550781 C 706.617188 303.8125 707.035156 303.035156 707.371094 302.21875 C 707.710938 301.398438 707.96875 300.554688 708.140625 299.6875 C 708.3125 298.816406 708.398438 297.9375 708.398438 297.054688 C 708.398438 296.167969 708.3125 295.289062 708.140625 294.421875 C 707.96875 293.550781 707.710938 292.707031 707.371094 291.890625 C 707.035156 291.070312 706.617188 290.292969 706.125 289.558594 C 705.632812 288.820312 705.074219 288.136719 704.449219 287.511719 C 703.820312 286.886719 703.140625 286.328125 702.402344 285.835938 C 701.667969 285.339844 700.890625 284.925781 700.070312 284.585938 C 699.25 284.246094 698.40625 283.992188 697.539062 283.820312 C 696.671875 283.644531 695.792969 283.558594 694.90625 283.558594 Z M 398.054688 324.039062 C 397.167969 324.039062 396.289062 323.996094 395.410156 323.910156 C 394.527344 323.824219 393.65625 323.695312 392.789062 323.519531 C 391.921875 323.347656 391.066406 323.132812 390.21875 322.878906 C 389.375 322.621094 388.542969 322.324219 387.726562 321.984375 C 386.910156 321.648438 386.113281 321.269531 385.332031 320.851562 C 384.550781 320.4375 383.796875 319.984375 383.058594 319.492188 C 382.324219 319 381.617188 318.476562 380.933594 317.914062 C 380.25 317.355469 379.597656 316.761719 378.972656 316.136719 C 378.347656 315.511719 377.753906 314.855469 377.191406 314.171875 C 376.632812 313.492188 376.105469 312.78125 375.613281 312.046875 C 375.125 311.3125 374.671875 310.554688 374.253906 309.773438 C 373.835938 308.996094 373.460938 308.195312 373.121094 307.378906 C 372.78125 306.5625 372.484375 305.734375 372.230469 304.886719 C 371.972656 304.042969 371.757812 303.183594 371.585938 302.316406 C 371.414062 301.453125 371.285156 300.578125 371.195312 299.699219 C 371.109375 298.820312 371.066406 297.9375 371.066406 297.054688 C 371.066406 296.167969 371.109375 295.289062 371.195312 294.40625 C 371.285156 293.527344 371.414062 292.65625 371.585938 291.789062 C 371.757812 290.921875 371.972656 290.066406 372.230469 289.21875 C 372.484375 288.375 372.78125 287.542969 373.121094 286.726562 C 373.460938 285.910156 373.835938 285.113281 374.253906 284.332031 C 374.671875 283.550781 375.125 282.796875 375.613281 282.058594 C 376.105469 281.324219 376.632812 280.617188 377.191406 279.933594 C 377.753906 279.25 378.347656 278.597656 378.972656 277.972656 C 379.597656 277.347656 380.25 276.753906 380.933594 276.191406 C 381.617188 275.632812 382.324219 275.105469 383.058594 274.613281 C 383.796875 274.125 384.550781 273.667969 385.332031 273.253906 C 386.113281 272.835938 386.910156 272.460938 387.726562 272.121094 C 388.542969 271.78125 389.375 271.484375 390.21875 271.230469 C 391.066406 270.972656 391.921875 270.757812 392.789062 270.585938 C 393.65625 270.414062 394.527344 270.285156 395.410156 270.195312 C 396.289062 270.109375 397.167969 270.066406 398.054688 270.066406 C 398.9375 270.066406 399.820312 270.109375 400.699219 270.195312 C 401.578125 270.285156 402.453125 270.414062 403.316406 270.585938 C 404.183594 270.757812 405.042969 270.972656 405.886719 271.230469 C 406.734375 271.484375 407.5625 271.78125 408.378906 272.121094 C 409.199219 272.460938 409.996094 272.835938 410.773438 273.253906 C 411.554688 273.667969 412.3125 274.125 413.046875 274.613281 C 413.78125 275.105469 414.492188 275.632812 415.171875 276.191406 C 415.855469 276.753906 416.511719 277.347656 417.136719 277.972656 C 417.761719 278.597656 418.355469 279.25 418.914062 279.933594 C 419.476562 280.617188 420 281.324219 420.492188 282.058594 C 420.984375 282.796875 421.4375 283.550781 421.855469 284.332031 C 422.269531 285.113281 422.648438 285.910156 422.984375 286.726562 C 423.324219 287.542969 423.621094 288.375 423.878906 289.21875 C 424.132812 290.066406 424.347656 290.921875 424.523438 291.789062 C 424.695312 292.65625 424.824219 293.527344 424.910156 294.40625 C 424.996094 295.289062 425.039062 296.167969 425.039062 297.054688 C 425.039062 297.9375 424.996094 298.820312 424.910156 299.699219 C 424.824219 300.578125 424.695312 301.453125 424.523438 302.316406 C 424.347656 303.183594 424.132812 304.042969 423.878906 304.886719 C 423.621094 305.734375 423.324219 306.5625 422.984375 307.378906 C 422.648438 308.195312 422.269531 308.996094 421.851562 309.773438 C 421.4375 310.554688 420.984375 311.3125 420.492188 312.046875 C 420 312.78125 419.476562 313.492188 418.914062 314.171875 C 418.355469 314.855469 417.761719 315.511719 417.136719 316.136719 C 416.511719 316.761719 415.855469 317.355469 415.171875 317.914062 C 414.492188 318.476562 413.78125 319 413.046875 319.492188 C 412.3125 319.984375 411.554688 320.4375 410.773438 320.851562 C 409.996094 321.269531 409.199219 321.648438 408.378906 321.984375 C 407.5625 322.324219 406.734375 322.621094 405.886719 322.878906 C 405.042969 323.132812 404.183594 323.347656 403.316406 323.519531 C 402.453125 323.695312 401.578125 323.824219 400.699219 323.910156 C 399.820312 323.996094 398.9375 324.039062 398.054688 324.039062 Z M 398.054688 324.039062 " fill-opacity="1" fill-rule="nonzero"/></g><g clip-path="url(#4769a753c7)"><path fill="#0b7c12" d="M 694.90625 499.453125 L 517.578125 499.453125 C 517.210938 498.019531 516.789062 496.601562 516.308594 495.203125 C 515.824219 493.804688 515.285156 492.425781 514.691406 491.074219 C 514.09375 489.71875 513.441406 488.390625 512.738281 487.089844 C 512.03125 485.789062 511.273438 484.519531 510.464844 483.28125 C 509.652344 482.042969 508.792969 480.839844 507.882812 479.675781 C 506.972656 478.507812 506.015625 477.378906 505.011719 476.292969 C 504.011719 475.203125 502.964844 474.160156 501.875 473.15625 C 500.785156 472.15625 499.65625 471.199219 498.488281 470.292969 C 497.320312 469.382812 496.117188 468.527344 494.875 467.71875 C 493.636719 466.910156 492.367188 466.152344 491.066406 465.449219 C 489.761719 464.746094 488.433594 464.097656 487.078125 463.503906 C 485.722656 462.910156 484.347656 462.371094 482.945312 461.890625 C 481.546875 461.410156 480.128906 460.988281 478.695312 460.625 C 477.261719 460.265625 475.8125 459.960938 474.355469 459.71875 C 472.894531 459.472656 471.425781 459.292969 469.953125 459.167969 C 468.476562 459.046875 467 458.984375 465.519531 458.984375 C 464.039062 458.984375 462.5625 459.046875 461.089844 459.167969 C 459.613281 459.292969 458.144531 459.472656 456.6875 459.71875 C 455.226562 459.960938 453.78125 460.265625 452.34375 460.625 C 450.910156 460.988281 449.492188 461.410156 448.09375 461.890625 C 446.695312 462.371094 445.316406 462.910156 443.960938 463.503906 C 442.605469 464.097656 441.277344 464.746094 439.976562 465.449219 C 438.671875 466.152344 437.402344 466.910156 436.164062 467.71875 C 434.925781 468.527344 433.71875 469.382812 432.550781 470.292969 C 431.382812 471.199219 430.253906 472.15625 429.164062 473.15625 C 428.074219 474.160156 427.03125 475.203125 426.027344 476.292969 C 425.023438 477.378906 424.066406 478.507812 423.15625 479.675781 C 422.246094 480.839844 421.386719 482.042969 420.578125 483.28125 C 419.765625 484.519531 419.007812 485.789062 418.300781 487.089844 C 417.597656 488.390625 416.945312 489.71875 416.351562 491.074219 C 415.753906 492.425781 415.214844 493.804688 414.734375 495.203125 C 414.25 496.601562 413.828125 498.019531 413.460938 499.453125 L 317.09375 499.453125 C 316.207031 499.453125 315.328125 499.539062 314.460938 499.710938 C 313.59375 499.886719 312.75 500.140625 311.929688 500.480469 C 311.109375 500.820312 310.332031 501.234375 309.597656 501.726562 C 308.859375 502.21875 308.179688 502.777344 307.550781 503.40625 C 306.925781 504.03125 306.367188 504.714844 305.875 505.449219 C 305.382812 506.1875 304.964844 506.964844 304.628906 507.78125 C 304.289062 508.601562 304.03125 509.445312 303.859375 510.3125 C 303.6875 511.183594 303.601562 512.0625 303.601562 512.945312 C 303.601562 513.832031 303.6875 514.710938 303.859375 515.578125 C 304.03125 516.449219 304.289062 517.292969 304.628906 518.109375 C 304.964844 518.929688 305.382812 519.707031 305.875 520.441406 C 306.367188 521.179688 306.925781 521.863281 307.550781 522.488281 C 308.179688 523.113281 308.859375 523.671875 309.597656 524.164062 C 310.332031 524.65625 311.109375 525.074219 311.929688 525.414062 C 312.75 525.75 313.59375 526.007812 314.460938 526.179688 C 315.328125 526.355469 316.207031 526.441406 317.09375 526.441406 L 413.460938 526.441406 C 413.828125 527.875 414.25 529.289062 414.734375 530.691406 C 415.214844 532.089844 415.753906 533.464844 416.351562 534.820312 C 416.945312 536.175781 417.597656 537.503906 418.300781 538.804688 C 419.007812 540.105469 419.765625 541.375 420.578125 542.613281 C 421.386719 543.851562 422.246094 545.050781 423.15625 546.21875 C 424.066406 547.386719 425.023438 548.515625 426.027344 549.601562 C 427.03125 550.691406 428.074219 551.734375 429.164062 552.734375 C 430.253906 553.738281 431.382812 554.691406 432.550781 555.601562 C 433.71875 556.507812 434.925781 557.367188 436.164062 558.175781 C 437.402344 558.984375 438.671875 559.742188 439.976562 560.445312 C 441.277344 561.148438 442.605469 561.796875 443.960938 562.390625 C 445.316406 562.984375 446.695312 563.523438 448.09375 564.003906 C 449.492188 564.480469 450.910156 564.902344 452.34375 565.265625 C 453.78125 565.628906 455.226562 565.933594 456.6875 566.175781 C 458.144531 566.417969 459.613281 566.601562 461.089844 566.722656 C 462.5625 566.847656 464.039062 566.90625 465.519531 566.90625 C 467 566.90625 468.476562 566.847656 469.953125 566.722656 C 471.425781 566.601562 472.894531 566.417969 474.355469 566.175781 C 475.8125 565.933594 477.261719 565.628906 478.695312 565.265625 C 480.128906 564.902344 481.546875 564.480469 482.945312 564.003906 C 484.347656 563.523438 485.722656 562.984375 487.078125 562.390625 C 488.433594 561.796875 489.761719 561.148438 491.066406 560.445312 C 492.367188 559.742188 493.636719 558.984375 494.875 558.175781 C 496.117188 557.367188 497.320312 556.507812 498.488281 555.601562 C 499.65625 554.691406 500.785156 553.738281 501.875 552.734375 C 502.964844 551.734375 504.011719 550.691406 505.011719 549.601562 C 506.015625 548.515625 506.972656 547.386719 507.882812 546.21875 C 508.792969 545.050781 509.652344 543.851562 510.464844 542.613281 C 511.273438 541.375 512.03125 540.105469 512.738281 538.804688 C 513.441406 537.503906 514.09375 536.175781 514.691406 534.820312 C 515.285156 533.464844 515.824219 532.089844 516.308594 530.691406 C 516.789062 529.289062 517.210938 527.875 517.578125 526.441406 L 694.90625 526.441406 C 695.792969 526.441406 696.671875 526.355469 697.539062 526.179688 C 698.40625 526.007812 699.25 525.75 700.070312 525.414062 C 700.890625 525.074219 701.667969 524.65625 702.402344 524.164062 C 703.140625 523.671875 703.820312 523.113281 704.449219 522.488281 C 705.074219 521.863281 705.632812 521.179688 706.125 520.441406 C 706.617188 519.707031 707.035156 518.929688 707.371094 518.109375 C 707.710938 517.292969 707.96875 516.449219 708.140625 515.578125 C 708.3125 514.710938 708.398438 513.832031 708.398438 512.945312 C 708.398438 512.0625 708.3125 511.183594 708.140625 510.3125 C 707.96875 509.445312 707.710938 508.601562 707.371094 507.78125 C 707.035156 506.964844 706.617188 506.1875 706.125 505.449219 C 705.632812 504.714844 705.074219 504.03125 704.449219 503.40625 C 703.820312 502.777344 703.140625 502.21875 702.402344 501.726562 C 701.667969 501.234375 700.890625 500.820312 700.070312 500.480469 C 699.25 500.140625 698.40625 499.886719 697.539062 499.710938 C 696.671875 499.539062 695.792969 499.453125 694.90625 499.453125 Z M 465.519531 539.933594 C 464.636719 539.933594 463.753906 539.890625 462.875 539.804688 C 461.996094 539.714844 461.121094 539.585938 460.253906 539.414062 C 459.386719 539.242188 458.53125 539.027344 457.6875 538.769531 C 456.839844 538.515625 456.007812 538.21875 455.191406 537.878906 C 454.375 537.539062 453.578125 537.164062 452.796875 536.746094 C 452.019531 536.332031 451.261719 535.875 450.527344 535.386719 C 449.792969 534.894531 449.082031 534.367188 448.398438 533.808594 C 447.714844 533.246094 447.0625 532.652344 446.4375 532.027344 C 445.8125 531.402344 445.21875 530.75 444.660156 530.066406 C 444.097656 529.382812 443.574219 528.675781 443.082031 527.941406 C 442.589844 527.203125 442.136719 526.449219 441.71875 525.667969 C 441.304688 524.886719 440.925781 524.089844 440.585938 523.273438 C 440.25 522.457031 439.953125 521.625 439.695312 520.78125 C 439.4375 519.933594 439.222656 519.078125 439.050781 518.210938 C 438.878906 517.34375 438.75 516.472656 438.664062 515.59375 C 438.578125 514.710938 438.535156 513.832031 438.535156 512.945312 C 438.535156 512.0625 438.578125 511.179688 438.664062 510.300781 C 438.75 509.421875 438.878906 508.546875 439.050781 507.683594 C 439.222656 506.816406 439.4375 505.957031 439.695312 505.113281 C 439.953125 504.265625 440.25 503.4375 440.585938 502.621094 C 440.925781 501.804688 441.304688 501.003906 441.71875 500.226562 C 442.136719 499.445312 442.589844 498.6875 443.082031 497.953125 C 443.574219 497.21875 444.097656 496.507812 444.660156 495.828125 C 445.21875 495.144531 445.8125 494.488281 446.4375 493.863281 C 447.0625 493.238281 447.714844 492.644531 448.398438 492.085938 C 449.082031 491.523438 449.792969 491 450.527344 490.507812 C 451.261719 490.015625 452.019531 489.5625 452.796875 489.148438 C 453.578125 488.730469 454.375 488.351562 455.191406 488.015625 C 456.007812 487.675781 456.839844 487.378906 457.6875 487.121094 C 458.53125 486.867188 459.386719 486.652344 460.253906 486.480469 C 461.121094 486.304688 461.996094 486.175781 462.875 486.089844 C 463.753906 486.003906 464.636719 485.960938 465.519531 485.960938 C 466.402344 485.960938 467.285156 486.003906 468.164062 486.089844 C 469.042969 486.175781 469.917969 486.304688 470.785156 486.480469 C 471.652344 486.652344 472.507812 486.867188 473.355469 487.121094 C 474.199219 487.378906 475.03125 487.675781 475.847656 488.015625 C 476.664062 488.351562 477.460938 488.730469 478.242188 489.148438 C 479.019531 489.5625 479.777344 490.015625 480.511719 490.507812 C 481.246094 491 481.957031 491.523438 482.640625 492.085938 C 483.324219 492.644531 483.976562 493.238281 484.601562 493.863281 C 485.226562 494.488281 485.820312 495.144531 486.382812 495.828125 C 486.941406 496.507812 487.46875 497.21875 487.957031 497.953125 C 488.449219 498.6875 488.902344 499.445312 489.320312 500.226562 C 489.738281 501.003906 490.113281 501.804688 490.453125 502.621094 C 490.789062 503.4375 491.089844 504.265625 491.34375 505.113281 C 491.601562 505.957031 491.816406 506.816406 491.988281 507.683594 C 492.160156 508.546875 492.289062 509.421875 492.375 510.300781 C 492.464844 511.179688 492.507812 512.0625 492.507812 512.945312 C 492.507812 513.832031 492.464844 514.710938 492.375 515.59375 C 492.289062 516.472656 492.160156 517.34375 491.988281 518.210938 C 491.816406 519.078125 491.601562 519.933594 491.34375 520.78125 C 491.089844 521.625 490.789062 522.457031 490.453125 523.273438 C 490.113281 524.089844 489.738281 524.886719 489.320312 525.667969 C 488.902344 526.449219 488.449219 527.203125 487.957031 527.941406 C 487.46875 528.675781 486.941406 529.382812 486.382812 530.066406 C 485.820312 530.75 485.226562 531.402344 484.601562 532.027344 C 483.976562 532.652344 483.324219 533.246094 482.640625 533.808594 C 481.957031 534.367188 481.246094 534.894531 480.511719 535.386719 C 479.777344 535.875 479.019531 536.332031 478.242188 536.746094 C 477.460938 537.164062 476.664062 537.539062 475.847656 537.878906 C 475.03125 538.21875 474.199219 538.515625 473.355469 538.769531 C 472.507812 539.027344 471.652344 539.242188 470.785156 539.414062 C 469.917969 539.585938 469.042969 539.714844 468.164062 539.804688 C 467.285156 539.890625 466.402344 539.933594 465.519531 539.933594 Z M 465.519531 539.933594 " fill-opacity="1" fill-rule="nonzero"/></g><g clip-path="url(#36762bb463)"><path fill="#0b7c12" d="M 694.90625 391.507812 L 679.496094 391.507812 C 679.132812 390.074219 678.707031 388.65625 678.226562 387.257812 C 677.746094 385.859375 677.207031 384.480469 676.609375 383.125 C 676.015625 381.773438 675.363281 380.445312 674.65625 379.144531 C 673.953125 377.84375 673.195312 376.574219 672.382812 375.335938 C 671.574219 374.097656 670.710938 372.894531 669.804688 371.726562 C 668.894531 370.558594 667.9375 369.433594 666.933594 368.34375 C 665.929688 367.257812 664.882812 366.210938 663.792969 365.210938 C 662.707031 364.210938 661.578125 363.253906 660.40625 362.347656 C 659.238281 361.4375 658.035156 360.578125 656.796875 359.769531 C 655.558594 358.960938 654.285156 358.207031 652.984375 357.503906 C 651.683594 356.796875 650.355469 356.148438 649 355.554688 C 647.644531 354.960938 646.265625 354.425781 644.867188 353.945312 C 643.46875 353.464844 642.050781 353.042969 640.613281 352.679688 C 639.179688 352.316406 637.734375 352.015625 636.273438 351.769531 C 634.8125 351.527344 633.347656 351.34375 631.871094 351.222656 C 630.398438 351.101562 628.917969 351.039062 627.441406 351.039062 C 625.960938 351.039062 624.484375 351.101562 623.007812 351.222656 C 621.535156 351.34375 620.066406 351.527344 618.605469 351.769531 C 617.148438 352.015625 615.699219 352.316406 614.265625 352.679688 C 612.832031 353.042969 611.414062 353.464844 610.011719 353.945312 C 608.613281 354.425781 607.234375 354.960938 605.878906 355.554688 C 604.523438 356.148438 603.195312 356.796875 601.894531 357.503906 C 600.59375 358.207031 599.324219 358.960938 598.082031 359.769531 C 596.84375 360.578125 595.640625 361.4375 594.472656 362.347656 C 593.304688 363.253906 592.175781 364.210938 591.085938 365.210938 C 589.996094 366.210938 588.949219 367.257812 587.945312 368.34375 C 586.945312 369.433594 585.988281 370.558594 585.078125 371.726562 C 584.167969 372.894531 583.308594 374.097656 582.496094 375.335938 C 581.6875 376.574219 580.929688 377.84375 580.222656 379.144531 C 579.515625 380.445312 578.867188 381.773438 578.269531 383.125 C 577.675781 384.480469 577.136719 385.859375 576.652344 387.257812 C 576.171875 388.65625 575.746094 390.074219 575.382812 391.507812 L 317.09375 391.507812 C 316.207031 391.507812 315.328125 391.59375 314.460938 391.765625 C 313.59375 391.9375 312.75 392.195312 311.929688 392.535156 C 311.109375 392.871094 310.332031 393.289062 309.597656 393.78125 C 308.859375 394.273438 308.179688 394.832031 307.550781 395.457031 C 306.925781 396.085938 306.367188 396.765625 305.875 397.503906 C 305.382812 398.238281 304.964844 399.019531 304.628906 399.835938 C 304.289062 400.65625 304.03125 401.5 303.859375 402.367188 C 303.6875 403.238281 303.601562 404.113281 303.601562 405 C 303.601562 405.886719 303.6875 406.761719 303.859375 407.632812 C 304.03125 408.5 304.289062 409.34375 304.628906 410.164062 C 304.964844 410.980469 305.382812 411.761719 305.875 412.496094 C 306.367188 413.234375 306.925781 413.914062 307.550781 414.542969 C 308.179688 415.167969 308.859375 415.726562 309.597656 416.21875 C 310.332031 416.710938 311.109375 417.128906 311.929688 417.464844 C 312.75 417.804688 313.59375 418.0625 314.460938 418.234375 C 315.328125 418.40625 316.207031 418.492188 317.09375 418.492188 L 575.382812 418.492188 C 575.746094 419.925781 576.171875 421.34375 576.652344 422.742188 C 577.136719 424.140625 577.675781 425.519531 578.269531 426.875 C 578.867188 428.226562 579.515625 429.554688 580.222656 430.855469 C 580.929688 432.15625 581.6875 433.425781 582.496094 434.664062 C 583.308594 435.902344 584.167969 437.105469 585.078125 438.273438 C 585.988281 439.441406 586.945312 440.566406 587.945312 441.65625 C 588.949219 442.742188 589.996094 443.789062 591.085938 444.789062 C 592.175781 445.789062 593.304688 446.746094 594.472656 447.652344 C 595.640625 448.5625 596.84375 449.421875 598.082031 450.230469 C 599.324219 451.039062 600.59375 451.792969 601.894531 452.496094 C 603.195312 453.203125 604.523438 453.851562 605.878906 454.445312 C 607.234375 455.039062 608.613281 455.574219 610.011719 456.054688 C 611.414062 456.535156 612.832031 456.957031 614.265625 457.320312 C 615.699219 457.683594 617.148438 457.984375 618.605469 458.230469 C 620.066406 458.472656 621.535156 458.65625 623.007812 458.777344 C 624.484375 458.898438 625.960938 458.960938 627.441406 458.960938 C 628.917969 458.960938 630.398438 458.898438 631.871094 458.777344 C 633.347656 458.65625 634.8125 458.472656 636.273438 458.230469 C 637.734375 457.984375 639.179688 457.683594 640.613281 457.320312 C 642.050781 456.957031 643.46875 456.535156 644.867188 456.054688 C 646.265625 455.574219 647.644531 455.039062 649 454.445312 C 650.355469 453.851562 651.683594 453.203125 652.984375 452.496094 C 654.285156 451.792969 655.558594 451.039062 656.796875 450.230469 C 658.035156 449.421875 659.238281 448.5625 660.40625 447.652344 C 661.578125 446.746094 662.707031 445.789062 663.792969 444.789062 C 664.882812 443.789062 665.929688 442.742188 666.933594 441.65625 C 667.9375 440.566406 668.894531 439.441406 669.804688 438.273438 C 670.710938 437.105469 671.574219 435.902344 672.382812 434.664062 C 673.195312 433.425781 673.953125 432.15625 674.65625 430.855469 C 675.363281 429.554688 676.015625 428.226562 676.609375 426.875 C 677.207031 425.519531 677.746094 424.140625 678.226562 422.742188 C 678.707031 421.34375 679.132812 419.925781 679.496094 418.492188 L 694.90625 418.492188 C 695.792969 418.492188 696.671875 418.40625 697.539062 418.234375 C 698.40625 418.0625 699.25 417.804688 700.070312 417.464844 C 700.890625 417.128906 701.667969 416.710938 702.402344 416.21875 C 703.140625 415.726562 703.820312 415.167969 704.449219 414.542969 C 705.074219 413.914062 705.632812 413.234375 706.125 412.496094 C 706.617188 411.761719 707.035156 410.980469 707.371094 410.164062 C 707.710938 409.34375 707.96875 408.5 708.140625 407.632812 C 708.3125 406.761719 708.398438 405.886719 708.398438 405 C 708.398438 404.113281 708.3125 403.238281 708.140625 402.367188 C 707.96875 401.5 707.710938 400.65625 707.371094 399.835938 C 707.035156 399.019531 706.617188 398.238281 706.125 397.503906 C 705.632812 396.765625 705.074219 396.085938 704.449219 395.457031 C 703.820312 394.832031 703.140625 394.273438 702.402344 393.78125 C 701.667969 393.289062 700.890625 392.871094 700.070312 392.535156 C 699.25 392.195312 698.40625 391.9375 697.539062 391.765625 C 696.671875 391.59375 695.792969 391.507812 694.90625 391.507812 Z M 627.441406 431.988281 C 626.554688 431.988281 625.675781 431.941406 624.796875 431.855469 C 623.914062 431.769531 623.042969 431.640625 622.175781 431.46875 C 621.308594 431.296875 620.453125 431.082031 619.605469 430.824219 C 618.761719 430.566406 617.929688 430.269531 617.113281 429.933594 C 616.296875 429.59375 615.5 429.214844 614.71875 428.800781 C 613.9375 428.382812 613.183594 427.929688 612.445312 427.4375 C 611.710938 426.949219 611.003906 426.421875 610.320312 425.859375 C 609.636719 425.300781 608.984375 424.707031 608.359375 424.082031 C 607.734375 423.457031 607.140625 422.804688 606.578125 422.121094 C 606.019531 421.4375 605.492188 420.726562 605 419.992188 C 604.511719 419.257812 604.058594 418.5 603.640625 417.722656 C 603.222656 416.941406 602.847656 416.144531 602.507812 415.328125 C 602.167969 414.511719 601.871094 413.679688 601.617188 412.832031 C 601.359375 411.988281 601.144531 411.132812 600.972656 410.265625 C 600.800781 409.398438 600.671875 408.523438 600.582031 407.644531 C 600.496094 406.765625 600.453125 405.882812 600.453125 405 C 600.453125 404.117188 600.496094 403.234375 600.582031 402.355469 C 600.671875 401.476562 600.800781 400.601562 600.972656 399.734375 C 601.144531 398.867188 601.359375 398.011719 601.617188 397.167969 C 601.871094 396.320312 602.167969 395.488281 602.507812 394.671875 C 602.847656 393.855469 603.222656 393.058594 603.640625 392.277344 C 604.058594 391.5 604.511719 390.742188 605 390.007812 C 605.492188 389.273438 606.019531 388.5625 606.578125 387.878906 C 607.140625 387.195312 607.734375 386.542969 608.359375 385.917969 C 608.984375 385.292969 609.636719 384.699219 610.320312 384.140625 C 611.003906 383.578125 611.710938 383.050781 612.445312 382.5625 C 613.183594 382.070312 613.9375 381.617188 614.71875 381.199219 C 615.5 380.785156 616.296875 380.40625 617.113281 380.066406 C 617.929688 379.730469 618.761719 379.433594 619.605469 379.175781 C 620.453125 378.917969 621.308594 378.703125 622.175781 378.53125 C 623.042969 378.359375 623.914062 378.230469 624.796875 378.144531 C 625.675781 378.058594 626.554688 378.011719 627.441406 378.011719 C 628.324219 378.011719 629.207031 378.058594 630.085938 378.144531 C 630.964844 378.230469 631.839844 378.359375 632.703125 378.53125 C 633.570312 378.703125 634.429688 378.917969 635.273438 379.175781 C 636.121094 379.433594 636.949219 379.730469 637.765625 380.066406 C 638.585938 380.40625 639.382812 380.785156 640.160156 381.199219 C 640.941406 381.617188 641.699219 382.070312 642.433594 382.5625 C 643.167969 383.050781 643.878906 383.578125 644.558594 384.140625 C 645.242188 384.699219 645.898438 385.292969 646.523438 385.917969 C 647.148438 386.542969 647.742188 387.195312 648.300781 387.878906 C 648.863281 388.5625 649.386719 389.273438 649.878906 390.007812 C 650.371094 390.742188 650.824219 391.5 651.238281 392.277344 C 651.65625 393.058594 652.035156 393.855469 652.371094 394.671875 C 652.710938 395.488281 653.007812 396.320312 653.265625 397.167969 C 653.519531 398.011719 653.734375 398.867188 653.910156 399.734375 C 654.082031 400.601562 654.210938 401.476562 654.296875 402.355469 C 654.382812 403.234375 654.425781 404.117188 654.425781 405 C 654.425781 405.882812 654.382812 406.765625 654.296875 407.644531 C 654.210938 408.523438 654.082031 409.398438 653.910156 410.265625 C 653.734375 411.132812 653.519531 411.988281 653.265625 412.832031 C 653.007812 413.679688 652.710938 414.511719 652.371094 415.328125 C 652.035156 416.144531 651.65625 416.941406 651.242188 417.722656 C 650.824219 418.5 650.371094 419.257812 649.878906 419.992188 C 649.386719 420.726562 648.863281 421.4375 648.300781 422.121094 C 647.742188 422.804688 647.148438 423.457031 646.523438 424.082031 C 645.898438 424.707031 645.242188 425.300781 644.558594 425.859375 C 643.878906 426.421875 643.167969 426.949219 642.433594 427.4375 C 641.699219 427.929688 640.941406 428.382812 640.160156 428.800781 C 639.382812 429.214844 638.585938 429.59375 637.765625 429.933594 C 636.949219 430.269531 636.121094 430.566406 635.273438 430.824219 C 634.429688 431.082031 633.570312 431.296875 632.703125 431.46875 C 631.839844 431.640625 630.964844 431.769531 630.085938 431.855469 C 629.207031 431.941406 628.324219 431.988281 627.441406 431.988281 Z M 627.441406 431.988281 " fill-opacity="1" fill-rule="nonzero"/></g></svg>