<svg xmlns="http://www.w3.org/2000/svg" xmlns:xlink="http://www.w3.org/1999/xlink" width="1350" zoomAndPan="magnify" viewBox="0 0 1012.5 809.999993" height="1080" preserveAspectRatio="xMidYMid meet" version="1.0"><defs><clipPath id="39466dd5e8"><path d="M 0 0.199219 L 1012 0.199219 L 1012 809.800781 L 0 809.800781 Z M 0 0.199219 " clip-rule="nonzero"/></clipPath><clipPath id="49ab9254bc"><path d="M 306 230.175781 L 706 230.175781 L 706 579.503906 L 306 579.503906 Z M 306 230.175781 " clip-rule="nonzero"/></clipPath></defs><g clip-path="url(#39466dd5e8)"><path fill="#ffffff" d="M 0 0.199219 L 1012 0.199219 L 1012 809.800781 L 0 809.800781 Z M 0 0.199219 " fill-opacity="1" fill-rule="nonzero"/><path fill="#ffffff" d="M 0 0.199219 L 1012 0.199219 L 1012 809.800781 L 0 809.800781 Z M 0 0.199219 " fill-opacity="1" fill-rule="nonzero"/></g><g clip-path="url(#49ab9254bc)"><path fill="#0b7c12" d="M 483.152344 230.113281 C 482.480469 230.203125 481.824219 230.46875 481.269531 230.859375 C 480.164062 231.640625 479.464844 232.957031 479.464844 234.316406 C 479.464844 234.316406 479.464844 234.328125 479.464844 234.328125 L 479.464844 260.171875 L 473.25 260.171875 C 467.113281 260.171875 461.992188 265.285156 461.992188 271.417969 L 461.992188 292.484375 L 450.710938 292.484375 L 450.710938 279.109375 C 450.710938 275.765625 448.1875 273.125 444.945312 272.761719 L 444.945312 272.617188 C 443.78125 272.542969 442.636719 272.460938 441.410156 272.433594 C 440.476562 272.425781 439.332031 272.425781 438.394531 272.433594 C 438.378906 272.433594 438.332031 272.433594 438.304688 272.433594 C 437.523438 272.425781 436.707031 272.433594 435.90625 272.433594 L 435.871094 272.433594 C 435.664062 272.46875 435.109375 272.488281 435.300781 272.488281 C 435.171875 272.488281 435.035156 272.488281 434.910156 272.46875 C 433.5 272.507812 432.140625 272.589844 430.777344 272.660156 C 430.730469 272.660156 430.6875 272.660156 430.632812 272.660156 C 430.59375 272.660156 430.550781 272.660156 430.503906 272.660156 C 423.820312 272.832031 417.800781 276.875 415.09375 282.949219 C 415.074219 282.996094 415.046875 283.050781 415.019531 283.097656 L 415 283.132812 C 415 283.148438 414.976562 283.167969 414.964844 283.1875 L 414.964844 283.203125 C 414.910156 283.351562 414.882812 283.46875 414.800781 283.632812 C 414.792969 283.648438 414.785156 283.675781 414.765625 283.703125 L 414.730469 283.777344 C 414.71875 283.796875 414.703125 283.824219 414.691406 283.847656 C 414.683594 283.867188 414.683594 283.886719 414.675781 283.902344 C 411.332031 291.242188 409.378906 299.570312 407.546875 308.523438 C 407.546875 308.535156 407.546875 308.542969 407.546875 308.5625 C 406.910156 311.574219 404.804688 314.089844 401.941406 315.246094 C 401.96875 315.234375 401.480469 315.488281 400.808594 315.78125 C 397.9375 316.988281 394.613281 316.660156 392.023438 314.925781 L 392.007812 314.910156 C 384.316406 309.8125 377.023438 305.21875 369.429688 302.402344 L 369.4375 302.375 C 369.464844 302.386719 369.265625 302.320312 369.210938 302.304688 C 369.167969 302.292969 369.167969 302.304688 369.167969 302.304688 C 369.085938 302.285156 369.003906 302.257812 368.929688 302.230469 C 368.875 302.210938 368.8125 302.195312 368.75 302.175781 C 362.554688 299.816406 355.507812 301.1875 350.675781 305.761719 C 350.605469 305.828125 350.523438 305.898438 350.449219 305.953125 C 350.414062 305.980469 350.386719 306.019531 350.339844 306.046875 C 350.332031 306.054688 350.324219 306.046875 350.304688 306.0625 C 349.214844 307.027344 348.222656 307.90625 347.199219 308.886719 L 347.179688 308.90625 C 347.171875 308.90625 347.152344 308.914062 347.144531 308.925781 L 347.125 308.960938 C 347.097656 309.003906 347.070312 309.042969 347.035156 309.085938 C 347.027344 309.085938 347.007812 309.097656 347 309.105469 C 346.425781 309.679688 345.871094 310.1875 345.34375 310.722656 C 345.238281 310.832031 345.136719 310.949219 345.027344 311.058594 C 345.027344 311.066406 345.019531 311.078125 345.007812 311.09375 C 344.992188 311.113281 344.972656 311.140625 344.957031 311.167969 L 344.917969 311.203125 C 344.902344 311.222656 344.875 311.222656 344.847656 311.238281 C 344.828125 311.257812 344.808594 311.292969 344.792969 311.3125 C 344.183594 311.910156 343.582031 312.492188 342.929688 313.15625 L 342.929688 313.175781 C 342.910156 313.191406 342.882812 313.210938 342.855469 313.230469 L 342.839844 313.246094 C 342.839844 313.257812 342.839844 313.265625 342.839844 313.28125 C 342.828125 313.28125 342.8125 313.292969 342.804688 313.300781 C 342.785156 313.320312 342.765625 313.335938 342.75 313.355469 L 342.710938 313.390625 C 341.648438 314.5 340.667969 315.535156 339.734375 316.589844 C 339.695312 316.632812 339.660156 316.671875 339.605469 316.734375 C 339.585938 316.761719 339.5625 316.796875 339.535156 316.824219 C 334.9375 321.648438 333.613281 328.777344 335.984375 334.988281 C 335.984375 335.007812 335.992188 335.023438 336 335.042969 C 336.0625 335.234375 336.109375 335.425781 336.164062 335.613281 C 336.191406 335.707031 336.226562 335.804688 336.253906 335.894531 L 336.253906 335.796875 C 336.253906 335.816406 336.265625 335.816406 336.273438 335.832031 C 336.273438 335.84375 336.273438 335.886719 336.273438 335.90625 C 339.089844 343.417969 343.675781 350.652344 348.722656 358.292969 L 348.707031 358.292969 C 350.441406 360.90625 350.730469 364.214844 349.488281 367.09375 C 349.207031 367.753906 348.96875 368.28125 348.96875 368.28125 L 348.949219 368.28125 C 347.789062 371.125 345.292969 373.222656 342.285156 373.847656 C 342.277344 373.847656 342.257812 373.847656 342.25 373.847656 C 333.25 375.691406 324.867188 377.679688 317.5 381.050781 C 317.472656 381.070312 317.445312 381.070312 317.410156 381.085938 C 317.390625 381.085938 317.375 381.097656 317.355469 381.105469 C 317.164062 381.195312 317.011719 381.242188 316.839844 381.296875 L 316.828125 381.324219 C 316.792969 381.332031 316.746094 381.351562 316.703125 381.359375 C 310.644531 384.066406 306.601562 390.113281 306.429688 396.808594 C 306.429688 396.84375 306.429688 396.890625 306.429688 396.933594 C 306.429688 396.980469 306.429688 397.023438 306.429688 397.078125 C 306.347656 398.460938 306.257812 399.796875 306.222656 401.15625 L 306.222656 401.175781 C 306.230469 401.300781 306.238281 401.4375 306.238281 401.566406 L 306.238281 401.621094 C 306.238281 401.800781 306.230469 401.984375 306.203125 402.15625 C 306.203125 402.753906 306.203125 403.347656 306.203125 403.945312 C 306.230469 404.117188 306.238281 404.300781 306.238281 404.480469 L 306.238281 404.644531 C 306.238281 404.828125 306.230469 405.007812 306.203125 405.179688 C 306.203125 405.789062 306.203125 406.398438 306.203125 407.007812 C 306.222656 407.167969 306.238281 407.34375 306.238281 407.503906 L 306.238281 407.558594 C 306.238281 407.679688 306.238281 407.796875 306.222656 407.914062 C 306.257812 409.292969 306.359375 410.636719 306.429688 412.046875 C 306.429688 412.101562 306.429688 412.15625 306.429688 412.210938 C 306.429688 412.265625 306.429688 412.300781 306.429688 412.355469 C 306.601562 419.039062 310.636719 425.050781 316.703125 427.765625 C 316.746094 427.785156 316.792969 427.8125 316.847656 427.839844 L 316.972656 427.910156 C 317.09375 427.964844 317.21875 427.984375 317.363281 428.058594 C 317.382812 428.074219 317.410156 428.074219 317.4375 428.09375 L 317.511719 428.128906 C 317.527344 428.140625 317.554688 428.140625 317.582031 428.148438 C 317.601562 428.15625 317.621094 428.15625 317.636719 428.167969 C 324.976562 431.5 333.320312 433.488281 342.277344 435.3125 L 342.292969 435.3125 C 345.300781 435.929688 347.769531 438.019531 348.941406 440.84375 C 348.96875 440.90625 349.25 441.445312 349.523438 442.105469 C 350.738281 444.957031 350.457031 448.28125 348.742188 450.871094 C 343.710938 458.488281 339.097656 465.71875 336.292969 473.203125 C 336.28125 473.238281 336.273438 473.273438 336.253906 473.3125 C 336.238281 473.355469 336.210938 473.472656 336.144531 473.628906 C 336.101562 473.792969 336.054688 473.945312 336 474.109375 C 336 474.148438 335.992188 474.164062 335.984375 474.199219 C 333.613281 480.414062 334.957031 487.542969 339.550781 492.363281 C 339.597656 492.410156 339.652344 492.457031 339.695312 492.507812 C 339.714844 492.527344 339.734375 492.5625 339.75 492.582031 L 339.769531 492.601562 C 339.796875 492.636719 339.832031 492.671875 339.859375 492.710938 C 340.777344 493.734375 341.722656 494.734375 342.765625 495.816406 C 342.777344 495.832031 342.792969 495.851562 342.804688 495.871094 L 342.855469 495.925781 L 342.875 495.941406 L 342.949219 496.015625 C 343.492188 496.570312 344 497.078125 344.546875 497.613281 L 344.074219 497.351562 C 344.355469 497.496094 344.628906 497.667969 344.855469 497.886719 L 344.875 497.902344 C 344.992188 498.011719 345.074219 498.09375 345.171875 498.222656 C 345.734375 498.792969 346.328125 499.355469 347 500.011719 C 347.015625 500.027344 347.035156 500.066406 347.054688 500.082031 L 347.109375 500.136719 L 347.125 500.15625 L 347.144531 500.191406 C 347.152344 500.203125 347.171875 500.203125 347.179688 500.210938 L 347.199219 500.230469 C 348.171875 501.171875 349.105469 502 350.105469 502.890625 C 350.132812 502.917969 350.160156 502.945312 350.195312 502.980469 C 350.367188 503.089844 350.53125 503.207031 350.675781 503.351562 C 355.507812 507.929688 362.554688 509.292969 368.75 506.941406 C 368.804688 506.921875 368.859375 506.902344 368.914062 506.886719 C 369.15625 506.804688 369.394531 506.722656 369.640625 506.675781 C 377.175781 503.851562 384.40625 499.3125 392.042969 494.261719 L 392.0625 494.226562 C 394.648438 492.5 397.972656 492.183594 400.84375 493.390625 C 401.515625 493.671875 402.007812 493.925781 401.980469 493.90625 C 404.820312 495.0625 406.9375 497.558594 407.582031 500.554688 C 407.582031 500.574219 407.582031 500.59375 407.582031 500.609375 C 409.425781 509.601562 411.398438 518.011719 414.765625 525.375 C 414.785156 525.414062 414.785156 525.449219 414.800781 525.484375 C 414.8125 525.503906 414.828125 525.503906 414.839844 525.519531 C 414.902344 525.65625 414.929688 525.75 414.984375 525.875 C 414.984375 525.894531 414.992188 525.910156 415 525.929688 C 415.046875 526.003906 415.082031 526.085938 415.128906 526.15625 L 415.128906 526.175781 C 415.128906 526.183594 415.136719 526.203125 415.148438 526.210938 C 417.863281 532.261719 423.855469 536.273438 430.539062 536.445312 C 430.578125 536.445312 430.621094 536.445312 430.667969 536.445312 C 430.714844 536.445312 430.757812 536.445312 430.8125 536.445312 C 432.203125 536.527344 433.582031 536.636719 435.019531 536.671875 C 435.117188 536.65625 435.21875 536.648438 435.316406 536.636719 L 435.355469 536.636719 C 435.445312 536.644531 435.535156 536.65625 435.617188 536.671875 C 436.527344 536.683594 437.441406 536.683594 438.332031 536.671875 C 438.351562 536.671875 438.394531 536.671875 438.421875 536.671875 C 439.378906 536.683594 440.375 536.683594 441.3125 536.671875 C 441.347656 536.671875 441.375 536.671875 441.421875 536.671875 L 441.457031 536.671875 C 442.671875 536.65625 443.808594 536.546875 444.972656 536.484375 L 444.972656 536.320312 C 448.203125 535.945312 450.738281 533.324219 450.738281 529.988281 L 450.738281 516.613281 L 462.019531 516.613281 L 462.019531 537.683594 C 462.019531 543.820312 467.140625 548.925781 473.277344 548.925781 L 479.492188 548.925781 L 479.492188 574.789062 C 479.492188 576.140625 480.191406 577.46875 481.296875 578.25 C 482.40625 579.03125 483.90625 579.238281 485.183594 578.804688 L 489.460938 577.3125 C 491.125 576.734375 492.3125 575.027344 492.3125 573.273438 L 492.3125 548.933594 L 498.5625 548.933594 C 504.703125 548.933594 509.804688 543.8125 509.804688 537.691406 L 509.804688 516.621094 L 517.308594 516.621094 L 517.308594 537.691406 C 517.308594 543.828125 522.429688 548.933594 528.566406 548.933594 L 534.796875 548.933594 L 534.796875 574.796875 C 534.796875 576.152344 535.480469 577.476562 536.585938 578.257812 C 537.695312 579.039062 539.195312 579.25 540.472656 578.8125 L 544.75 577.324219 C 546.414062 576.742188 547.601562 575.035156 547.601562 573.28125 L 547.601562 548.941406 L 553.851562 548.941406 C 559.992188 548.941406 565.09375 543.820312 565.09375 537.699219 L 565.09375 516.628906 L 572.597656 516.628906 L 572.597656 537.699219 C 572.597656 543.839844 577.71875 548.941406 583.855469 548.941406 L 590.085938 548.941406 L 590.085938 574.808594 C 590.085938 576.160156 590.769531 577.488281 591.875 578.269531 C 592.984375 579.046875 594.484375 579.257812 595.761719 578.820312 L 600.039062 577.332031 C 601.703125 576.75 602.890625 575.042969 602.890625 573.289062 L 602.890625 548.953125 L 609.140625 548.953125 C 615.28125 548.953125 620.382812 543.828125 620.382812 537.710938 L 620.382812 516.640625 L 625.933594 516.640625 C 634.933594 516.640625 642.34375 509.21875 642.34375 500.210938 L 642.34375 483.765625 L 664.484375 483.765625 C 670.605469 483.765625 675.726562 478.652344 675.726562 472.519531 L 675.726562 466.273438 L 700.066406 466.273438 C 701.820312 466.273438 703.507812 465.074219 704.089844 463.421875 L 705.597656 459.144531 C 706.042969 457.863281 705.824219 456.382812 705.042969 455.273438 C 704.261719 454.167969 702.925781 453.46875 701.5625 453.46875 L 675.71875 453.46875 L 675.71875 447.238281 C 675.71875 441.097656 670.605469 435.976562 664.476562 435.976562 L 642.316406 435.976562 L 642.316406 428.476562 L 664.457031 428.476562 C 670.578125 428.476562 675.699219 423.363281 675.699219 417.230469 L 675.699219 410.984375 L 700.039062 410.984375 C 701.792969 410.984375 703.480469 409.785156 704.0625 408.132812 L 705.570312 403.855469 C 706.015625 402.574219 705.796875 401.074219 705.015625 399.96875 C 704.234375 398.859375 702.898438 398.179688 701.539062 398.179688 L 675.691406 398.179688 L 675.691406 391.949219 C 675.691406 385.808594 670.578125 380.6875 664.449219 380.6875 L 642.316406 380.6875 L 642.316406 373.1875 L 664.457031 373.1875 C 670.578125 373.1875 675.699219 368.074219 675.699219 361.941406 L 675.699219 355.695312 L 700.039062 355.695312 C 701.792969 355.695312 703.480469 354.496094 704.0625 352.84375 L 705.570312 348.566406 C 706.015625 347.285156 705.796875 345.785156 705.015625 344.679688 C 704.234375 343.570312 702.898438 342.890625 701.539062 342.890625 L 675.691406 342.890625 L 675.691406 336.613281 C 675.691406 330.476562 670.578125 325.371094 664.449219 325.371094 L 642.316406 325.371094 L 642.316406 308.925781 C 642.316406 299.925781 634.914062 292.496094 625.90625 292.496094 L 620.355469 292.496094 L 620.355469 271.425781 C 620.355469 265.304688 615.242188 260.183594 609.113281 260.183594 L 602.863281 260.183594 L 602.863281 235.84375 C 602.863281 234.089844 601.667969 232.382812 600.011719 231.800781 L 595.734375 230.3125 C 594.457031 229.867188 592.957031 230.078125 591.847656 230.867188 C 590.742188 231.65625 590.058594 232.964844 590.058594 234.328125 C 590.058594 234.328125 590.058594 234.335938 590.058594 234.335938 L 590.058594 260.183594 L 583.828125 260.183594 C 577.691406 260.183594 572.570312 265.296875 572.570312 271.425781 L 572.570312 292.496094 L 565.066406 292.496094 L 565.066406 271.425781 C 565.066406 265.304688 559.953125 260.183594 553.824219 260.183594 L 547.574219 260.183594 L 547.574219 235.84375 C 547.574219 234.089844 546.378906 232.382812 544.722656 231.800781 L 540.445312 230.3125 C 539.167969 229.867188 537.667969 230.078125 536.558594 230.867188 C 535.453125 231.65625 534.769531 232.964844 534.769531 234.328125 C 534.769531 234.328125 534.769531 234.335938 534.769531 234.335938 L 534.769531 260.183594 L 528.539062 260.183594 C 522.402344 260.183594 517.28125 265.296875 517.28125 271.425781 L 517.28125 292.496094 L 509.777344 292.496094 L 509.777344 271.425781 C 509.777344 265.304688 504.664062 260.183594 498.535156 260.183594 L 492.285156 260.183594 L 492.285156 235.84375 C 492.285156 234.089844 491.089844 232.382812 489.433594 231.800781 L 485.15625 230.3125 C 484.523438 230.085938 483.832031 230.023438 483.152344 230.113281 Z M 474.8125 273.007812 L 496.9375 273.007812 L 496.9375 292.496094 L 474.824219 292.496094 L 474.824219 273.007812 Z M 530.101562 273.007812 L 552.226562 273.007812 L 552.226562 292.496094 L 530.101562 292.496094 Z M 585.390625 273.007812 L 607.53125 273.007812 L 607.53125 292.496094 L 585.390625 292.496094 Z M 435.246094 285.648438 L 435.246094 285.683594 C 435.453125 285.683594 441.128906 285.65625 437.742188 285.683594 L 437.742188 353.652344 C 409.851562 353.960938 387.375 376.574219 387.382812 404.542969 C 387.382812 432.5 409.851562 455.09375 437.742188 455.402344 L 437.742188 523.441406 C 437.015625 523.441406 436.308594 523.441406 435.5625 523.441406 L 435.316406 523.441406 C 435.300781 523.441406 435.273438 523.441406 435.246094 523.441406 C 434.144531 523.414062 433.027344 523.367188 431.558594 523.277344 C 431.53125 523.277344 431.496094 523.277344 431.46875 523.277344 C 431.257812 523.261719 431.058594 523.234375 430.847656 523.222656 C 429.222656 523.1875 427.796875 522.234375 427.144531 520.761719 C 427.042969 520.5625 426.953125 520.34375 426.84375 520.144531 C 426.835938 520.109375 426.816406 520.074219 426.808594 520.035156 C 426.800781 520.007812 426.78125 519.980469 426.773438 519.945312 C 426.753906 519.910156 426.734375 519.855469 426.71875 519.816406 C 426.617188 519.589844 426.542969 519.355469 426.507812 519.109375 C 426.507812 519.089844 426.507812 519.089844 426.507812 519.074219 C 424.039062 513.433594 422.238281 506.558594 420.476562 497.96875 C 418.96875 490.621094 413.929688 484.507812 407 481.667969 L 406.664062 481.503906 L 406.574219 481.464844 C 406.484375 481.421875 406.328125 481.328125 406.003906 481.203125 C 399.0625 478.277344 391.136719 479.023438 384.859375 483.191406 L 384.859375 483.210938 C 377.222656 488.269531 370.765625 492.136719 364.851562 494.335938 C 364.835938 494.351562 364.816406 494.351562 364.796875 494.371094 C 364.554688 494.460938 364.308594 494.554688 364.070312 494.632812 L 364.070312 494.652344 C 362.347656 495.316406 360.773438 494.6875 359.757812 493.726562 C 359.605469 493.589844 359.429688 493.480469 359.277344 493.355469 C 359.25 493.316406 359.222656 493.28125 359.1875 493.246094 C 357.84375 492.054688 357.1875 491.554688 356.488281 490.902344 L 356.453125 490.882812 C 356.390625 490.828125 356.335938 490.765625 356.269531 490.703125 C 356.253906 490.683594 356.1875 490.628906 356.179688 490.628906 C 356.117188 490.546875 356.0625 490.464844 356 490.382812 C 355.515625 489.914062 355 489.429688 354.417969 488.839844 L 354.382812 488.824219 L 354.253906 488.695312 L 354.21875 488.640625 L 354.199219 488.640625 C 354.101562 488.53125 354 488.421875 353.917969 488.304688 L 353.902344 488.285156 C 353.417969 487.8125 352.890625 487.324219 352.300781 486.726562 L 352.265625 486.707031 L 352.140625 486.597656 L 352.121094 486.578125 C 352.085938 486.523438 352.039062 486.460938 351.992188 486.398438 L 351.984375 486.398438 C 351.976562 486.398438 351.957031 486.378906 351.949219 486.378906 C 351.949219 486.363281 351.9375 486.34375 351.929688 486.324219 C 351.882812 486.28125 351.839844 486.226562 351.792969 486.171875 C 351.074219 485.40625 350.375 484.625 349.558594 483.710938 C 349.414062 483.554688 349.277344 483.410156 349.132812 483.265625 C 349.113281 483.246094 349.097656 483.226562 349.078125 483.210938 C 347.550781 481.613281 347.726562 480.367188 348.242188 478.96875 L 348.261719 478.914062 C 348.261719 478.894531 348.261719 478.878906 348.261719 478.859375 C 348.351562 478.597656 348.441406 478.324219 348.523438 478.0625 C 348.542969 477.988281 348.570312 477.925781 348.597656 477.871094 C 350.777344 472.011719 354.65625 465.664062 359.6875 458.054688 C 363.835938 451.777344 364.542969 443.851562 361.601562 436.910156 C 361.394531 436.414062 361.265625 436.101562 361.191406 435.921875 C 361.175781 435.867188 361.15625 435.832031 361.136719 435.777344 C 358.285156 428.882812 352.203125 423.851562 344.890625 422.363281 C 336.089844 420.566406 328.980469 418.738281 323.285156 416.167969 C 323.222656 416.132812 323.085938 416.132812 323.023438 416.097656 C 322.996094 416.078125 322.96875 416.058594 322.933594 416.042969 C 322.914062 416.03125 322.90625 416.015625 322.878906 416.003906 L 322.839844 415.988281 C 322.742188 415.953125 322.695312 415.953125 322.613281 415.914062 L 322.078125 415.6875 L 322.058594 415.667969 C 320.472656 414.941406 319.652344 413.597656 319.609375 411.984375 C 319.597656 411.773438 319.589844 411.554688 319.570312 411.347656 C 319.570312 411.328125 319.570312 411.292969 319.570312 411.273438 C 319.488281 409.804688 319.417969 408.675781 319.390625 407.585938 L 319.390625 407.515625 C 319.390625 407.359375 319.390625 407.234375 319.390625 407.324219 C 319.390625 407.304688 319.390625 407.289062 319.390625 407.269531 C 319.382812 406.433594 319.382812 405.652344 319.390625 404.808594 C 319.390625 404.746094 319.390625 404.707031 319.390625 404.644531 C 319.390625 404.636719 319.390625 404.625 319.390625 404.609375 L 319.390625 404.453125 C 319.390625 404.445312 319.390625 404.4375 319.390625 404.417969 C 319.390625 404.363281 319.390625 404.328125 319.390625 404.273438 C 319.382812 403.425781 319.382812 402.628906 319.390625 401.792969 C 319.390625 401.773438 319.390625 401.757812 319.390625 401.738281 C 319.390625 401.800781 319.390625 401.683594 319.390625 401.59375 L 319.390625 401.519531 C 319.390625 401.492188 319.390625 401.464844 319.390625 401.429688 C 319.417969 400.332031 319.480469 399.25 319.570312 397.777344 C 319.570312 397.761719 319.570312 397.734375 319.570312 397.707031 C 319.589844 397.496094 319.597656 397.28125 319.609375 397.070312 C 319.644531 395.4375 320.460938 394.082031 322.070312 393.363281 L 322.605469 393.121094 C 322.679688 393.082031 322.703125 393.101562 322.796875 393.066406 L 322.867188 393.027344 C 323.058594 392.964844 323.304688 392.875 323.277344 392.882812 C 328.972656 390.3125 336.082031 388.515625 344.882812 386.707031 C 352.230469 385.199219 358.3125 380.132812 361.148438 373.195312 L 361.3125 372.929688 C 361.382812 372.75 361.429688 372.550781 361.59375 372.167969 C 364.542969 365.230469 363.835938 357.273438 359.675781 350.988281 C 354.644531 343.378906 350.777344 337.050781 348.585938 331.191406 C 348.558594 331.136719 348.558594 331.074219 348.535156 331.011719 C 348.453125 330.746094 348.359375 330.457031 348.269531 330.191406 L 348.269531 330.175781 C 348.261719 330.15625 348.261719 330.128906 348.25 330.101562 C 347.996094 329.394531 347.960938 328.757812 348.042969 328.113281 C 348.125 327.441406 348.234375 326.707031 349.070312 325.824219 C 349.085938 325.808594 349.105469 325.808594 349.125 325.789062 C 349.269531 325.644531 349.40625 325.480469 349.550781 325.324219 L 349.605469 325.289062 C 350.457031 324.335938 351.175781 323.492188 351.929688 322.699219 C 351.949219 322.683594 351.964844 322.664062 351.984375 322.644531 C 352.039062 322.574219 352.09375 322.519531 352.148438 322.457031 L 352.273438 322.328125 L 352.292969 322.308594 C 352.902344 321.691406 353.429688 321.230469 353.890625 320.785156 C 353.917969 320.757812 353.972656 320.722656 354 320.695312 C 354.117188 320.53125 354.253906 320.367188 354.410156 320.230469 L 354.425781 320.210938 C 354.636719 320.03125 354.863281 319.875 355.117188 319.75 L 354.671875 319.957031 C 355.171875 319.457031 355.671875 318.988281 356.125 318.542969 C 356.152344 318.503906 356.1875 318.46875 356.214844 318.433594 L 356.214844 318.449219 L 356.234375 318.449219 C 356.234375 318.449219 356.28125 318.40625 356.289062 318.394531 C 356.308594 318.367188 356.316406 318.332031 356.34375 318.304688 L 356.398438 318.25 C 356.417969 318.234375 356.445312 318.207031 356.46875 318.179688 C 357.179688 317.515625 357.84375 317.007812 359.203125 315.796875 C 359.230469 315.773438 359.257812 315.734375 359.296875 315.707031 C 359.449219 315.582031 359.605469 315.453125 359.757812 315.316406 C 360.773438 314.355469 362.347656 313.753906 364.070312 314.410156 C 364.082031 314.417969 364.097656 314.425781 364.109375 314.445312 C 364.34375 314.535156 364.570312 314.609375 364.816406 314.691406 C 364.835938 314.691406 364.851562 314.699219 364.871094 314.710938 C 370.792969 316.898438 377.242188 320.8125 384.878906 325.871094 C 391.152344 330.03125 399.082031 330.773438 406.019531 327.839844 C 406.375 327.6875 406.59375 327.585938 406.65625 327.558594 C 406.773438 327.496094 406.890625 327.449219 407.011719 327.394531 C 413.9375 324.554688 418.980469 318.46875 420.488281 311.128906 C 422.238281 302.566406 424.027344 295.726562 426.480469 290.117188 C 426.480469 290.105469 426.480469 290.097656 426.480469 290.078125 C 426.527344 289.796875 426.617188 289.515625 426.726562 289.261719 C 426.761719 289.144531 426.800781 289.035156 426.851562 288.925781 C 426.960938 288.726562 427.054688 288.527344 427.152344 288.328125 C 427.84375 286.792969 429.40625 285.894531 430.859375 285.867188 C 431.078125 285.855469 431.285156 285.828125 431.511719 285.8125 C 431.519531 285.8125 431.539062 285.8125 431.546875 285.8125 C 433.011719 285.730469 434.144531 285.675781 435.246094 285.648438 Z M 450.710938 305.300781 L 625.90625 305.300781 C 628.03125 305.300781 629.492188 306.789062 629.492188 308.914062 L 629.492188 500.15625 C 629.492188 502.28125 628.039062 503.769531 625.90625 503.769531 L 450.710938 503.769531 Z M 642.316406 338.183594 L 662.875 338.183594 L 662.875 360.308594 L 642.316406 360.308594 Z M 437.570312 366.765625 L 437.75 366.765625 L 437.75 442.242188 C 417.199219 441.941406 400.527344 425.179688 400.515625 404.554688 C 400.507812 383.992188 417.019531 367.144531 437.570312 366.765625 Z M 642.316406 393.472656 L 662.875 393.472656 L 662.875 415.597656 L 642.316406 415.597656 Z M 642.316406 448.761719 L 662.875 448.761719 L 662.875 470.90625 L 642.316406 470.90625 Z M 474.8125 516.59375 L 496.925781 516.59375 L 496.925781 536.082031 L 474.804688 536.082031 L 474.804688 516.59375 Z M 530.101562 516.59375 L 552.226562 516.59375 L 552.226562 536.082031 L 530.101562 536.082031 Z M 585.390625 516.59375 L 607.53125 516.59375 L 607.53125 536.082031 L 585.390625 536.082031 Z M 585.390625 516.59375 " fill-opacity="1" fill-rule="nonzero"/></g></svg>