<svg xmlns="http://www.w3.org/2000/svg" xmlns:xlink="http://www.w3.org/1999/xlink" width="1350" zoomAndPan="magnify" viewBox="0 0 1012.5 809.999993" height="1080" preserveAspectRatio="xMidYMid meet" version="1.0"><defs><clipPath id="0536402816"><path d="M 0 0.199219 L 1012 0.199219 L 1012 809.800781 L 0 809.800781 Z M 0 0.199219 " clip-rule="nonzero"/></clipPath><clipPath id="b51d2d25e7"><path d="M 303.601562 200 L 708.398438 200 L 708.398438 613 L 303.601562 613 Z M 303.601562 200 " clip-rule="nonzero"/></clipPath></defs><g clip-path="url(#0536402816)"><path fill="#ffffff" d="M 0 0.199219 L 1012 0.199219 L 1012 809.800781 L 0 809.800781 Z M 0 0.199219 " fill-opacity="1" fill-rule="nonzero"/><path fill="#ffffff" d="M 0 0.199219 L 1012 0.199219 L 1012 809.800781 L 0 809.800781 Z M 0 0.199219 " fill-opacity="1" fill-rule="nonzero"/></g><g clip-path="url(#b51d2d25e7)"><path fill="#0b7c12" d="M 415.148438 266.988281 C 468.390625 231.789062 537.542969 230.769531 591.808594 264.402344 C 595.46875 262.695312 599.347656 261.386719 603.386719 260.542969 C 589.9375 246.796875 590.0625 224.792969 603.660156 211.195312 C 617.363281 197.492188 639.582031 197.492188 653.285156 211.195312 C 666.882812 224.792969 667.007812 246.789062 653.566406 260.539062 C 678 265.617188 696.136719 287.359375 696.136719 312.824219 L 696.136719 360.222656 C 696.136719 362.160156 695.816406 364.023438 695.230469 365.769531 L 702.59375 365.753906 C 705.804688 365.753906 708.410156 368.355469 708.410156 371.566406 C 708.410156 374.777344 705.804688 377.378906 702.59375 377.378906 L 667.414062 377.457031 C 671.949219 405.398438 669.226562 433.820312 659.707031 459.996094 C 653.34375 477.480469 644.109375 493.566406 632.574219 507.675781 L 632.574219 568.65625 L 671.191406 568.65625 C 674.414062 568.65625 677.027344 571.269531 677.027344 574.492188 L 677.027344 590.660156 C 677.027344 602.769531 667.140625 612.65625 655.027344 612.65625 L 355.988281 612.65625 C 343.875 612.65625 333.988281 602.769531 333.988281 590.660156 L 333.988281 574.492188 C 333.988281 571.269531 336.601562 568.65625 339.824219 568.65625 L 378.441406 568.65625 L 378.441406 507.671875 C 366.90625 493.5625 357.671875 477.480469 351.308594 459.996094 C 341.824219 433.917969 339.085938 405.613281 343.554688 377.761719 L 309.425781 377.761719 C 306.203125 377.761719 303.589844 375.148438 303.589844 371.925781 C 303.589844 368.703125 306.203125 366.089844 309.425781 366.089844 L 329.539062 366.089844 L 329.539062 349.523438 L 309.5 341.757812 C 307.191406 340.863281 305.777344 338.664062 305.777344 336.332031 L 305.757812 336.332031 L 305.757812 312.734375 C 305.757812 287.269531 323.894531 265.527344 348.332031 260.449219 C 334.886719 246.699219 335.015625 224.703125 348.609375 211.109375 C 362.316406 197.402344 384.53125 197.402344 398.234375 211.109375 C 411.828125 224.703125 411.957031 246.703125 398.515625 260.449219 C 404.476562 261.6875 410.085938 263.929688 415.148438 266.988281 Z M 490.871094 547.183594 C 487.101562 541.347656 484.183594 534.96875 482.167969 528.246094 L 469.378906 528.246094 C 474.1875 536.808594 481.714844 543.601562 490.871094 547.183594 Z M 479.636719 516.578125 C 478.65625 509.445312 478.65625 502.140625 479.636719 495.011719 L 464.824219 495.011719 C 463.148438 502.058594 463.148438 509.527344 464.824219 516.578125 Z M 482.167969 483.339844 C 484.183594 476.621094 487.101562 470.242188 490.871094 464.40625 C 481.714844 467.988281 474.1875 474.777344 469.378906 483.339844 Z M 505.507812 464.230469 C 500.753906 469.742188 496.980469 476.25 494.429688 483.34375 L 516.582031 483.34375 C 514.03125 476.246094 510.265625 469.746094 505.507812 464.230469 Z M 491.429688 495.011719 C 490.285156 502.109375 490.285156 509.480469 491.429688 516.578125 L 519.585938 516.578125 C 520.730469 509.484375 520.730469 502.105469 519.585938 495.011719 Z M 494.429688 528.246094 C 496.984375 535.339844 500.753906 541.847656 505.507812 547.359375 C 510.265625 541.84375 514.03125 535.339844 516.582031 528.246094 Z M 520.144531 464.40625 C 523.914062 470.242188 526.832031 476.621094 528.847656 483.339844 L 541.636719 483.339844 C 536.828125 474.777344 529.300781 467.988281 520.144531 464.40625 Z M 531.378906 495.011719 C 532.359375 502.140625 532.359375 509.449219 531.378906 516.578125 L 546.191406 516.578125 C 547.867188 509.527344 547.867188 502.0625 546.191406 495.011719 Z M 528.847656 528.246094 C 526.832031 534.96875 523.914062 541.347656 520.144531 547.183594 C 529.300781 543.601562 536.828125 536.808594 541.636719 528.246094 Z M 505.507812 449.976562 C 475.40625 449.976562 451.898438 475.535156 451.898438 505.792969 C 451.898438 536.050781 475.40625 561.609375 505.507812 561.609375 C 535.605469 561.609375 559.117188 536.050781 559.117188 505.792969 C 559.117188 475.535156 535.609375 449.976562 505.507812 449.976562 Z M 549.332031 580.328125 L 549.332031 583.382812 C 549.332031 591.492188 542.71875 598.109375 534.605469 598.109375 L 476.410156 598.109375 C 468.296875 598.109375 461.683594 591.492188 461.683594 583.382812 L 461.683594 580.328125 L 345.660156 580.328125 L 345.660156 590.65625 C 345.660156 596.328125 350.316406 600.984375 355.988281 600.984375 L 655.027344 600.984375 C 660.699219 600.984375 665.355469 596.328125 665.355469 590.65625 L 665.355469 580.328125 Z M 473.355469 580.328125 C 473.355469 582.4375 473.019531 584.296875 474.257812 585.535156 C 474.8125 586.089844 475.574219 586.4375 476.410156 586.4375 L 534.605469 586.4375 C 536.277344 586.4375 537.660156 585.050781 537.660156 583.382812 L 537.660156 580.328125 Z M 620.90625 568.65625 L 620.90625 423.359375 C 620.90625 420.792969 618.796875 418.683594 616.230469 418.683594 L 394.785156 418.683594 C 392.214844 418.683594 390.109375 420.792969 390.109375 423.359375 L 390.109375 568.65625 L 398.644531 568.65625 L 398.644531 433.054688 C 398.644531 429.832031 401.257812 427.21875 404.480469 427.21875 L 606.535156 427.21875 C 609.757812 427.21875 612.371094 429.832031 612.371094 433.054688 L 612.371094 568.65625 Z M 410.316406 568.65625 L 600.699219 568.65625 L 600.699219 438.890625 L 410.316406 438.890625 Z M 632.574219 488.074219 C 654.066406 455.699219 662.371094 416.082031 655.621094 377.476562 L 637.558594 377.515625 C 637.023438 377.675781 636.460938 377.761719 635.878906 377.761719 C 634.929688 377.761719 633.996094 377.679688 633.085938 377.523438 L 531.5625 377.738281 C 528.351562 377.738281 525.75 375.136719 525.75 371.925781 C 525.75 368.714844 528.351562 366.113281 531.5625 366.113281 L 558.695312 366.054688 L 539.367188 304.472656 C 537.910156 300.296875 540.945312 296.546875 544.816406 296.546875 L 563.382812 296.546875 C 566.605469 286.554688 572.714844 277.824219 580.71875 271.34375 C 532.273438 243.808594 472.203125 245.046875 424.9375 274.554688 C 434.898438 284.277344 441.085938 297.820312 441.085938 312.734375 L 441.085938 336.332031 C 441.085938 338.980469 439.320312 341.21875 436.902344 341.929688 L 417.308594 349.523438 L 417.308594 366.089844 L 437.421875 366.089844 C 440.644531 366.089844 443.257812 368.703125 443.257812 371.925781 C 443.257812 375.148438 440.644531 377.761719 437.421875 377.761719 L 355.347656 377.761719 C 348.691406 416.285156 357 455.777344 378.441406 488.074219 L 378.441406 423.359375 C 378.441406 414.347656 385.773438 407.015625 394.785156 407.015625 L 616.230469 407.015625 C 625.242188 407.015625 632.578125 414.347656 632.578125 423.359375 L 632.578125 488.074219 Z M 570.902344 366.03125 L 617.5625 365.933594 C 613.882812 360.214844 611.625 353.152344 611.625 347.253906 C 611.625 344.03125 614.234375 341.417969 617.460938 341.417969 L 628.765625 341.417969 L 618.34375 308.21875 L 552.753906 308.21875 Z M 640.976562 341.417969 L 659.550781 341.417969 L 659.550781 314.207031 C 659.550781 310.984375 662.160156 308.371094 665.386719 308.371094 C 668.609375 308.371094 671.222656 310.980469 671.222656 314.207031 L 671.222656 347.253906 C 671.222656 350.476562 668.609375 353.089844 665.386719 353.089844 L 624.28125 353.089844 C 625.140625 355.820312 626.523438 358.582031 628.277344 360.929688 C 630.125 363.40625 632.292969 365.304688 634.476562 365.898438 L 680.464844 365.800781 C 681.546875 365.4375 682.496094 364.753906 683.203125 363.863281 C 683.992188 362.867188 684.464844 361.601562 684.464844 360.222656 L 684.464844 312.824219 C 684.464844 289.886719 665.679688 271.101562 642.742188 271.101562 L 614.207031 271.101562 C 597.261719 271.101562 582.277344 281.34375 575.789062 296.546875 L 622.617188 296.546875 L 622.617188 296.554688 C 625.101562 296.554688 627.402344 298.15625 628.179688 300.652344 Z M 611.914062 252.570312 C 626.625 267.285156 651.894531 256.8125 651.894531 236.007812 C 651.894531 215.207031 626.625 204.734375 611.914062 219.449219 C 602.765625 228.59375 602.765625 243.425781 611.914062 252.570312 Z M 405.636719 366.089844 L 405.636719 311.785156 L 405.03125 311.179688 L 341.816406 311.179688 L 341.210938 311.785156 L 341.210938 366.089844 Z M 373.421875 259.339844 C 394.226562 259.339844 404.699219 234.070312 389.984375 219.359375 C 375.269531 204.644531 350.003906 215.117188 350.003906 235.917969 C 350.003906 248.855469 360.488281 259.339844 373.421875 259.339844 Z M 417.308594 337.046875 L 429.417969 332.355469 L 429.417969 312.734375 C 429.417969 289.796875 410.628906 271.011719 387.691406 271.011719 L 359.15625 271.011719 C 336.21875 271.011719 317.429688 289.796875 317.429688 312.734375 L 317.429688 332.355469 L 329.539062 337.046875 L 329.539062 311.785156 C 329.539062 305.019531 335.054688 299.507812 341.816406 299.507812 L 405.03125 299.507812 C 411.792969 299.507812 417.308594 305.019531 417.308594 311.785156 Z M 417.308594 337.046875 " fill-opacity="1" fill-rule="evenodd"/></g></svg>