<svg xmlns="http://www.w3.org/2000/svg" xmlns:xlink="http://www.w3.org/1999/xlink" width="1350" zoomAndPan="magnify" viewBox="0 0 1012.5 809.999993" height="1080" preserveAspectRatio="xMidYMid meet" version="1.0"><defs><clipPath id="784501edfb"><path d="M 0 0.199219 L 1012 0.199219 L 1012 809.800781 L 0 809.800781 Z M 0 0.199219 " clip-rule="nonzero"/></clipPath><clipPath id="6e4cf5e609"><path d="M 303.601562 202.601562 L 708.398438 202.601562 L 708.398438 607.398438 L 303.601562 607.398438 Z M 303.601562 202.601562 " clip-rule="nonzero"/></clipPath></defs><g clip-path="url(#784501edfb)"><path fill="#ffffff" d="M 0 0.199219 L 1012 0.199219 L 1012 809.800781 L 0 809.800781 Z M 0 0.199219 " fill-opacity="1" fill-rule="nonzero"/><path fill="#ffffff" d="M 0 0.199219 L 1012 0.199219 L 1012 809.800781 L 0 809.800781 Z M 0 0.199219 " fill-opacity="1" fill-rule="nonzero"/></g><g clip-path="url(#6e4cf5e609)"><path fill="#0b7c12" d="M 489.957031 373.785156 C 489.957031 370.179688 492.878906 367.257812 496.484375 367.257812 L 515.515625 367.257812 C 519.121094 367.257812 522.042969 370.179688 522.042969 373.785156 C 522.042969 377.390625 519.121094 380.316406 515.515625 380.316406 L 496.484375 380.316406 C 492.878906 380.316406 489.957031 377.390625 489.957031 373.785156 Z M 496.484375 441.769531 L 515.515625 441.769531 C 519.121094 441.769531 522.042969 438.84375 522.042969 435.238281 C 522.042969 431.632812 519.121094 428.710938 515.515625 428.710938 L 496.484375 428.710938 C 492.878906 428.710938 489.957031 431.632812 489.957031 435.238281 C 489.957031 438.84375 492.878906 441.769531 496.484375 441.769531 Z M 708.398438 494.316406 L 708.398438 519.71875 C 708.398438 522.417969 706.738281 524.839844 704.214844 525.8125 L 691.792969 530.59375 C 689.933594 537.210938 687.296875 543.570312 683.921875 549.578125 L 689.328125 561.75 C 690.425781 564.21875 689.890625 567.105469 687.980469 569.015625 L 670.019531 586.980469 C 668.109375 588.890625 665.21875 589.425781 662.75 588.332031 L 650.582031 582.925781 C 644.578125 586.300781 638.214844 588.9375 631.589844 590.796875 L 626.8125 603.214844 C 625.84375 605.738281 623.417969 607.402344 620.71875 607.402344 L 595.316406 607.402344 C 592.613281 607.402344 590.191406 605.738281 589.222656 603.21875 L 584.441406 590.792969 C 577.824219 588.933594 571.460938 586.296875 565.457031 582.921875 L 553.28125 588.332031 C 550.8125 589.425781 547.925781 588.890625 546.015625 586.980469 L 528.050781 569.015625 C 526.140625 567.105469 525.605469 564.21875 526.703125 561.75 L 532.105469 549.582031 C 529.203125 544.414062 526.847656 538.980469 525.0625 533.347656 C 518.808594 533.742188 512.421875 533.949219 506 533.949219 C 455.542969 533.949219 404.464844 521.320312 404.464844 497.179688 L 404.464844 403.367188 L 391.28125 403.367188 C 388.582031 403.367188 386.160156 401.703125 385.1875 399.183594 L 380.410156 386.761719 C 373.789062 384.902344 367.429688 382.265625 361.425781 378.890625 L 349.25 384.296875 C 346.78125 385.394531 343.894531 384.855469 341.984375 382.949219 L 324.019531 364.984375 C 322.109375 363.074219 321.574219 360.1875 322.671875 357.71875 L 328.074219 345.546875 C 324.699219 339.542969 322.0625 333.179688 320.203125 326.558594 L 307.785156 321.777344 C 305.261719 320.808594 303.601562 318.386719 303.601562 315.683594 L 303.601562 290.28125 C 303.601562 287.582031 305.261719 285.160156 307.785156 284.1875 L 320.203125 279.410156 C 322.0625 272.789062 324.703125 266.429688 328.078125 260.421875 L 322.671875 248.25 C 321.574219 245.78125 322.109375 242.894531 324.019531 240.984375 L 341.984375 223.019531 C 343.890625 221.113281 346.78125 220.574219 349.25 221.671875 L 361.425781 227.078125 C 367.429688 223.703125 373.789062 221.066406 380.40625 219.207031 L 385.1875 206.785156 C 386.160156 204.261719 388.582031 202.601562 391.28125 202.601562 L 416.683594 202.601562 C 419.386719 202.601562 421.808594 204.261719 422.777344 206.785156 L 427.558594 219.207031 C 434.175781 221.066406 440.539062 223.703125 446.542969 227.078125 L 458.71875 221.671875 C 461.1875 220.574219 464.074219 221.109375 465.984375 223.019531 L 483.949219 240.984375 C 485.859375 242.894531 486.394531 245.78125 485.296875 248.25 L 479.894531 260.417969 C 482.796875 265.585938 485.152344 271.019531 486.9375 276.652344 C 493.191406 276.257812 499.578125 276.050781 506 276.050781 C 556.457031 276.050781 607.535156 288.679688 607.535156 312.820312 L 607.535156 406.632812 L 620.71875 406.632812 C 623.417969 406.632812 625.839844 408.296875 626.8125 410.816406 L 631.589844 423.238281 C 638.207031 425.097656 644.570312 427.734375 650.574219 431.109375 L 662.75 425.703125 C 665.21875 424.609375 668.105469 425.144531 670.015625 427.050781 L 687.980469 445.015625 C 689.890625 446.925781 690.425781 449.816406 689.328125 452.28125 L 683.925781 464.453125 C 687.300781 470.457031 689.9375 476.820312 691.796875 483.441406 L 704.214844 488.222656 C 706.738281 489.191406 708.398438 491.613281 708.398438 494.316406 Z M 483.949219 364.984375 L 465.984375 382.949219 C 464.074219 384.855469 461.1875 385.394531 458.71875 384.296875 L 446.546875 378.894531 C 441.578125 381.6875 436.359375 383.964844 430.957031 385.726562 C 447.574219 393.285156 475.707031 397.984375 506 397.984375 C 564.089844 397.984375 594.476562 382.546875 594.476562 374.273438 L 594.476562 331.832031 C 576.089844 343.542969 540.898438 349.585938 506 349.585938 C 497.589844 349.585938 489.289062 349.242188 481.234375 348.566406 L 485.296875 357.714844 C 486.394531 360.183594 485.855469 363.074219 483.949219 364.984375 Z M 506 289.109375 C 505.417969 289.109375 504.835938 289.125 504.253906 289.125 C 504.324219 289.503906 504.367188 289.886719 504.367188 290.28125 L 504.367188 315.683594 C 504.367188 318.386719 502.703125 320.808594 500.183594 321.777344 L 487.761719 326.558594 C 486.882812 329.679688 485.828125 332.738281 484.613281 335.734375 C 491.585938 336.257812 498.746094 336.527344 506 336.527344 C 564.089844 336.527344 594.476562 321.09375 594.476562 312.816406 C 594.476562 304.542969 564.089844 289.109375 506 289.109375 Z M 395.765625 390.308594 L 412.203125 390.308594 L 416.578125 378.945312 C 417.351562 376.933594 419.066406 375.4375 421.160156 374.9375 C 428.777344 373.125 436.027344 370.121094 442.707031 366.003906 C 444.542969 364.875 446.816406 364.722656 448.78125 365.597656 L 459.921875 370.542969 L 471.542969 358.921875 L 466.59375 347.777344 C 465.722656 345.808594 465.871094 343.539062 467 341.707031 C 471.117188 335.019531 474.121094 327.773438 475.933594 320.164062 C 476.429688 318.070312 477.929688 316.355469 479.9375 315.582031 L 491.308594 311.203125 L 491.308594 294.765625 L 479.945312 290.390625 C 477.933594 289.617188 476.4375 287.902344 475.9375 285.808594 C 474.125 278.191406 471.121094 270.941406 467.003906 264.261719 C 465.875 262.425781 465.722656 260.152344 466.597656 258.1875 L 471.542969 247.046875 L 459.921875 235.425781 L 448.777344 240.371094 C 446.808594 241.246094 444.535156 241.09375 442.703125 239.964844 C 436.019531 235.851562 428.773438 232.84375 421.160156 231.035156 C 419.066406 230.535156 417.351562 229.035156 416.582031 227.027344 L 412.203125 215.65625 L 395.765625 215.65625 L 391.386719 227.027344 C 390.613281 229.035156 388.898438 230.535156 386.808594 231.035156 C 379.199219 232.84375 371.949219 235.851562 365.265625 239.964844 C 363.429688 241.09375 361.15625 241.246094 359.191406 240.375 L 348.046875 235.425781 L 336.425781 247.046875 L 341.371094 258.1875 C 342.246094 260.15625 342.09375 262.429688 340.964844 264.261719 C 336.847656 270.945312 333.84375 278.195312 332.03125 285.808594 C 331.535156 287.902344 330.035156 289.617188 328.027344 290.386719 L 316.65625 294.765625 L 316.65625 311.203125 L 328.023438 315.578125 C 330.03125 316.351562 331.53125 318.0625 332.03125 320.160156 C 333.84375 327.777344 336.847656 335.027344 340.960938 341.707031 C 342.09375 343.542969 342.242188 345.8125 341.371094 347.78125 L 336.421875 358.921875 L 348.046875 370.542969 L 359.191406 365.59375 C 361.15625 364.722656 363.429688 364.875 365.261719 366.003906 C 371.945312 370.117188 379.195312 373.125 386.804688 374.933594 C 388.898438 375.433594 390.613281 376.933594 391.386719 378.941406 Z M 417.523438 435.726562 C 417.523438 444 447.910156 459.4375 506 459.4375 C 513.984375 459.4375 521.835938 459.113281 529.453125 458.480469 L 526.703125 452.28125 C 525.605469 449.816406 526.140625 446.925781 528.050781 445.015625 L 546.015625 427.050781 C 547.925781 425.140625 550.8125 424.605469 553.28125 425.703125 L 565.457031 431.109375 C 571.460938 427.734375 577.824219 425.097656 584.441406 423.238281 L 589.222656 410.816406 C 590.089844 408.558594 592.125 407 594.476562 406.695312 L 594.476562 393.285156 C 576.089844 404.996094 540.898438 411.039062 506 411.039062 C 472.589844 411.039062 442.15625 405.65625 423.71875 396.738281 L 422.777344 399.183594 C 421.910156 401.4375 419.875 402.996094 417.519531 403.300781 L 417.519531 435.726562 Z M 506 520.890625 C 506.582031 520.890625 507.164062 520.875 507.746094 520.875 C 507.679688 520.496094 507.632812 520.113281 507.632812 519.71875 L 507.632812 503.222656 L 496.484375 503.222656 C 492.878906 503.222656 489.957031 500.296875 489.957031 496.691406 C 489.957031 493.085938 492.878906 490.164062 496.484375 490.164062 L 509.144531 490.164062 C 509.84375 489.320312 510.746094 488.632812 511.816406 488.222656 L 524.238281 483.441406 C 525.371094 479.410156 526.796875 475.472656 528.496094 471.65625 C 521.160156 472.210938 513.632812 472.496094 506 472.496094 C 471.101562 472.496094 435.910156 466.453125 417.523438 454.738281 L 417.523438 497.179688 C 417.523438 505.453125 447.910156 520.890625 506 520.890625 Z M 695.34375 498.796875 L 683.976562 494.421875 C 681.964844 493.648438 680.46875 491.933594 679.96875 489.839844 C 678.15625 482.226562 675.152344 474.976562 671.039062 468.292969 C 669.910156 466.460938 669.757812 464.1875 670.628906 462.21875 L 675.578125 451.082031 L 663.953125 439.457031 L 652.808594 444.40625 C 650.84375 445.28125 648.570312 445.128906 646.738281 444 C 640.050781 439.882812 632.804688 436.878906 625.195312 435.066406 C 623.101562 434.570312 621.386719 433.070312 620.613281 431.0625 L 616.234375 419.691406 L 599.796875 419.691406 L 595.421875 431.0625 C 594.648438 433.070312 592.933594 434.570312 590.839844 435.066406 C 583.230469 436.878906 575.980469 439.882812 569.296875 443.996094 C 567.460938 445.128906 565.191406 445.277344 563.222656 444.40625 L 552.082031 439.457031 L 540.457031 451.078125 L 545.40625 462.222656 C 546.277344 464.1875 546.125 466.460938 544.996094 468.292969 C 540.882812 474.976562 537.875 482.226562 536.066406 489.839844 C 535.566406 491.933594 534.070312 493.648438 532.058594 494.421875 L 521.820312 498.363281 C 521.597656 499.207031 521.210938 499.984375 520.691406 500.660156 L 520.691406 515.234375 L 532.054688 519.609375 C 534.066406 520.382812 535.566406 522.097656 536.0625 524.191406 C 537.875 531.808594 540.882812 539.058594 544.996094 545.738281 C 546.125 547.574219 546.277344 549.84375 545.40625 551.8125 L 540.457031 562.953125 L 552.082031 574.574219 L 563.226562 569.625 C 565.191406 568.753906 567.464844 568.902344 569.296875 570.03125 C 575.980469 574.148438 583.230469 577.152344 590.839844 578.964844 C 592.933594 579.460938 594.648438 580.960938 595.421875 582.96875 L 599.796875 594.34375 L 616.234375 594.34375 L 620.609375 582.976562 C 621.382812 580.96875 623.097656 579.46875 625.191406 578.96875 C 632.808594 577.15625 640.058594 574.152344 646.742188 570.035156 C 648.574219 568.90625 650.847656 568.757812 652.8125 569.628906 L 663.953125 574.578125 L 675.574219 562.953125 L 670.625 551.808594 C 669.753906 549.84375 669.90625 547.570312 671.035156 545.738281 C 675.148438 539.054688 678.15625 531.804688 679.964844 524.195312 C 680.464844 522.101562 681.960938 520.386719 683.972656 519.613281 L 695.34375 515.234375 Z M 662.71875 507.015625 C 662.71875 537.179688 638.179688 561.71875 608.015625 561.71875 C 577.851562 561.71875 553.3125 537.179688 553.3125 507.015625 C 553.3125 476.851562 577.851562 452.3125 608.015625 452.3125 C 638.179688 452.3125 662.71875 476.851562 662.71875 507.015625 Z M 649.664062 507.015625 C 649.664062 484.050781 630.980469 465.371094 608.015625 465.371094 C 585.054688 465.371094 566.371094 484.050781 566.371094 507.015625 C 566.371094 529.980469 585.054688 548.664062 608.015625 548.664062 C 630.980469 548.664062 649.664062 529.980469 649.664062 507.015625 Z M 403.984375 357.6875 C 373.820312 357.6875 349.28125 333.148438 349.28125 302.984375 C 349.28125 272.820312 373.820312 248.28125 403.984375 248.28125 C 434.148438 248.28125 458.6875 272.820312 458.6875 302.984375 C 458.6875 333.148438 434.148438 357.6875 403.984375 357.6875 Z M 445.628906 302.984375 C 445.628906 280.019531 426.949219 261.335938 403.984375 261.335938 C 381.019531 261.335938 362.335938 280.019531 362.335938 302.984375 C 362.335938 325.949219 381.019531 344.628906 403.984375 344.628906 C 426.949219 344.628906 445.628906 325.949219 445.628906 302.984375 Z M 522.636719 251.042969 L 656.6875 251.042969 L 656.6875 365.699219 L 652.960938 360.207031 C 650.9375 357.222656 646.875 356.445312 643.894531 358.46875 C 640.910156 360.496094 640.132812 364.554688 642.15625 367.539062 L 657.816406 390.617188 C 659.03125 392.40625 661.054688 393.480469 663.21875 393.480469 C 665.382812 393.480469 667.40625 392.410156 668.621094 390.617188 L 684.28125 367.539062 C 686.304688 364.554688 685.527344 360.496094 682.542969 358.46875 C 679.5625 356.445312 675.5 357.222656 673.476562 360.207031 L 669.75 365.699219 L 669.75 244.511719 C 669.75 240.90625 666.824219 237.984375 663.21875 237.984375 L 522.636719 237.984375 C 519.03125 237.984375 516.105469 240.90625 516.105469 244.511719 C 516.105469 248.117188 519.03125 251.042969 522.636719 251.042969 Z M 488.546875 558.957031 L 354.496094 558.957031 L 354.496094 444.300781 L 358.222656 449.792969 C 359.484375 451.652344 361.539062 452.65625 363.628906 452.65625 C 364.894531 452.65625 366.167969 452.292969 367.289062 451.53125 C 370.273438 449.507812 371.050781 445.445312 369.027344 442.460938 L 353.367188 419.382812 C 352.152344 417.59375 350.128906 416.519531 347.964844 416.519531 C 345.800781 416.519531 343.777344 417.59375 342.5625 419.382812 L 326.902344 442.460938 C 324.878906 445.445312 325.65625 449.507812 328.640625 451.53125 C 331.621094 453.554688 335.683594 452.777344 337.710938 449.792969 L 341.4375 444.300781 L 341.4375 565.484375 C 341.4375 569.089844 344.359375 572.015625 347.964844 572.015625 L 488.546875 572.015625 C 492.152344 572.015625 495.074219 569.089844 495.074219 565.484375 C 495.074219 561.878906 492.152344 558.957031 488.546875 558.957031 Z M 488.546875 558.957031 " fill-opacity="1" fill-rule="nonzero"/></g></svg>