<svg xmlns="http://www.w3.org/2000/svg" xmlns:xlink="http://www.w3.org/1999/xlink" width="1350" zoomAndPan="magnify" viewBox="0 0 1012.5 809.999993" height="1080" preserveAspectRatio="xMidYMid meet" version="1.0"><defs><clipPath id="7a278627f8"><path d="M 0 0.199219 L 1012 0.199219 L 1012 809.800781 L 0 809.800781 Z M 0 0.199219 " clip-rule="nonzero"/></clipPath><clipPath id="2eac0e1724"><path d="M 303.601562 259.066406 L 379.703125 259.066406 L 379.703125 550.9375 L 303.601562 550.9375 Z M 303.601562 259.066406 " clip-rule="nonzero"/></clipPath><clipPath id="a45913ce6d"><path d="M 632 259.066406 L 708.398438 259.066406 L 708.398438 550.9375 L 632 550.9375 Z M 632 259.066406 " clip-rule="nonzero"/></clipPath></defs><g clip-path="url(#7a278627f8)"><path fill="#ffffff" d="M 0 0.199219 L 1012 0.199219 L 1012 809.800781 L 0 809.800781 Z M 0 0.199219 " fill-opacity="1" fill-rule="nonzero"/><path fill="#ffffff" d="M 0 0.199219 L 1012 0.199219 L 1012 809.800781 L 0 809.800781 Z M 0 0.199219 " fill-opacity="1" fill-rule="nonzero"/></g><path fill="#0b7c12" d="M 445.1875 476.117188 C 442.722656 476.117188 440.253906 475.179688 438.375 473.296875 C 420.308594 455.234375 410.359375 431.214844 410.359375 405.671875 C 410.359375 380.125 420.308594 356.105469 438.375 338.039062 C 442.136719 334.277344 448.238281 334.277344 452 338.039062 C 455.765625 341.804688 455.765625 347.90625 452.003906 351.671875 C 437.578125 366.09375 429.636719 385.273438 429.636719 405.671875 C 429.636719 426.066406 437.578125 445.242188 452.003906 459.664062 C 455.765625 463.429688 455.765625 469.53125 452.003906 473.296875 C 450.121094 475.179688 447.652344 476.117188 445.1875 476.117188 " fill-opacity="1" fill-rule="nonzero"/><path fill="#0b7c12" d="M 567.480469 475.441406 C 565.050781 475.441406 562.617188 474.527344 560.742188 472.691406 C 556.933594 468.972656 556.867188 462.871094 560.589844 459.0625 C 574.632812 444.710938 582.363281 425.75 582.363281 405.671875 C 582.363281 384.953125 574.207031 365.566406 559.394531 351.074219 C 555.589844 347.355469 555.523438 341.253906 559.246094 337.449219 C 562.964844 333.644531 569.066406 333.574219 572.875 337.296875 C 591.425781 355.441406 601.640625 379.726562 601.640625 405.671875 C 601.640625 430.816406 591.957031 454.570312 574.371094 472.542969 C 572.484375 474.472656 569.984375 475.441406 567.480469 475.441406 " fill-opacity="1" fill-rule="nonzero"/><path fill="#0b7c12" d="M 419.355469 500.609375 C 416.863281 500.609375 414.371094 499.648438 412.484375 497.730469 C 388.164062 473.027344 374.773438 440.335938 374.773438 405.671875 C 374.773438 370.617188 388.421875 337.664062 413.210938 312.878906 C 416.976562 309.113281 423.078125 309.117188 426.839844 312.878906 C 430.601562 316.640625 430.601562 322.742188 426.839844 326.507812 C 405.695312 347.652344 394.046875 375.765625 394.046875 405.671875 C 394.046875 435.242188 405.476562 463.136719 426.222656 484.207031 C 429.953125 488 429.910156 494.101562 426.117188 497.839844 C 424.238281 499.683594 421.796875 500.609375 419.355469 500.609375 " fill-opacity="1" fill-rule="nonzero"/><path fill="#0b7c12" d="M 592.652344 500.601562 C 590.207031 500.601562 587.765625 499.683594 585.890625 497.832031 C 582.097656 494.101562 582.046875 487.996094 585.785156 484.203125 C 606.527344 463.128906 617.949219 435.238281 617.949219 405.671875 C 617.949219 375.4375 606.085938 347.105469 584.539062 325.894531 C 580.75 322.160156 580.703125 316.058594 584.4375 312.265625 C 588.167969 308.46875 594.273438 308.425781 598.066406 312.15625 C 623.320312 337.023438 637.226562 370.230469 637.226562 405.671875 C 637.226562 440.332031 623.835938 473.023438 599.519531 497.722656 C 597.632812 499.640625 595.140625 500.601562 592.652344 500.601562 " fill-opacity="1" fill-rule="nonzero"/><path fill="#0b7c12" d="M 394.195312 525.777344 C 391.710938 525.777344 389.226562 524.820312 387.339844 522.914062 C 356.289062 491.488281 339.1875 449.851562 339.1875 405.671875 C 339.1875 361.113281 356.539062 319.21875 388.046875 287.714844 C 391.808594 283.953125 397.910156 283.953125 401.675781 287.714844 C 405.4375 291.480469 405.4375 297.578125 401.675781 301.34375 C 373.808594 329.210938 358.464844 366.257812 358.464844 405.671875 C 358.464844 444.746094 373.589844 481.574219 401.050781 509.367188 C 404.792969 513.152344 404.753906 519.253906 400.96875 522.996094 C 399.089844 524.851562 396.644531 525.777344 394.195312 525.777344 " fill-opacity="1" fill-rule="nonzero"/><path fill="#0b7c12" d="M 617.808594 525.773438 C 615.363281 525.773438 612.914062 524.847656 611.035156 522.988281 C 607.25 519.25 607.210938 513.144531 610.953125 509.359375 C 638.414062 481.566406 653.535156 444.742188 653.535156 405.671875 C 653.535156 365.929688 637.96875 328.65625 609.695312 300.71875 C 605.910156 296.976562 605.875 290.875 609.617188 287.089844 C 613.355469 283.300781 619.457031 283.269531 623.242188 287.011719 C 655.210938 318.597656 672.8125 360.738281 672.8125 405.671875 C 672.8125 449.847656 655.714844 491.484375 624.667969 522.90625 C 622.78125 524.8125 620.296875 525.773438 617.808594 525.773438 " fill-opacity="1" fill-rule="nonzero"/><g clip-path="url(#2eac0e1724)"><path fill="#0b7c12" d="M 369.019531 550.929688 C 366.539062 550.929688 364.058594 549.976562 362.171875 548.074219 C 324.398438 509.929688 303.601562 459.355469 303.601562 405.671875 C 303.601562 351.605469 324.652344 300.78125 362.882812 262.550781 C 366.644531 258.789062 372.75 258.789062 376.511719 262.550781 C 380.273438 266.316406 380.273438 272.414062 376.511719 276.179688 C 341.921875 310.765625 322.875 356.753906 322.875 405.671875 C 322.875 454.242188 341.695312 500 375.871094 534.511719 C 379.617188 538.292969 379.585938 544.394531 375.804688 548.140625 C 373.925781 550.003906 371.472656 550.929688 369.019531 550.929688 " fill-opacity="1" fill-rule="nonzero"/></g><g clip-path="url(#a45913ce6d)"><path fill="#0b7c12" d="M 642.972656 550.9375 C 640.523438 550.9375 638.074219 550.007812 636.195312 548.144531 C 632.410156 544.398438 632.378906 538.296875 636.128906 534.511719 C 670.300781 500 689.125 454.242188 689.125 405.671875 C 689.125 356.421875 669.851562 310.210938 634.855469 275.550781 C 631.074219 271.804688 631.046875 265.699219 634.789062 261.921875 C 638.535156 258.140625 644.636719 258.109375 648.421875 261.855469 C 687.097656 300.164062 708.398438 351.238281 708.398438 405.671875 C 708.398438 459.355469 687.597656 509.929688 649.824219 548.078125 C 647.941406 549.980469 645.457031 550.9375 642.972656 550.9375 " fill-opacity="1" fill-rule="nonzero"/></g><path fill="#0b7c12" d="M 547.179688 406.335938 C 547.179688 429.265625 528.589844 447.855469 505.660156 447.855469 C 482.734375 447.855469 464.144531 429.265625 464.144531 406.335938 C 464.144531 383.40625 482.734375 364.816406 505.660156 364.816406 C 528.589844 364.816406 547.179688 383.40625 547.179688 406.335938 " fill-opacity="1" fill-rule="nonzero"/></svg>